<?xml version="1.0" encoding="utf-8"?>
<!-- Generator: Adobe Illustrator 26.3.1, SVG Export Plug-In . SVG Version: 6.00 Build 0)  -->
<svg version="1.1" id="Layer_1" xmlns="http://www.w3.org/2000/svg" xmlns:xlink="http://www.w3.org/1999/xlink" x="0px" y="0px"
	 viewBox="0 0 125.1 27.1" style="enable-background:new 0 0 125.1 27.1;" xml:space="preserve">
<style type="text/css">
	.st0{fill:#FFFFFF;}
</style>
<g>
	<g>
		<path  fill="#FFFFFF" class="st0" d="M2.5,2.9h0.6v4.2h2v0.5H2.5V2.9z"/>
		<path  fill="#FFFFFF" class="st0" d="M8.7,5.9c0,1.3-0.9,1.8-1.7,1.8C6.1,7.7,5.4,7,5.4,6c0-1.1,0.7-1.8,1.7-1.8C8.1,4.2,8.7,4.9,8.7,5.9z M6,5.9
			c0,0.7,0.4,1.3,1,1.3c0.6,0,1-0.6,1-1.3c0-0.6-0.3-1.3-1-1.3S6,5.3,6,5.9z"/>
		<path  fill="#FFFFFF" class="st0" d="M9.5,5.1c0-0.4,0-0.6,0-0.9H10l0,0.6h0c0.2-0.3,0.6-0.6,1.1-0.6c0.5,0,1.2,0.3,1.2,1.4v2h-0.6v-2
			c0-0.5-0.2-1-0.8-1c-0.4,0-0.7,0.3-0.8,0.6c0,0.1,0,0.2,0,0.3v2H9.5V5.1z"/>
		<path  fill="#FFFFFF" class="st0" d="M16.3,2.6v4.1c0,0.3,0,0.6,0,0.9h-0.6l0-0.6h0c-0.2,0.4-0.6,0.7-1.2,0.7c-0.8,0-1.4-0.7-1.4-1.7
			c0-1.1,0.7-1.8,1.5-1.8c0.5,0,0.9,0.2,1,0.5h0v-2H16.3z M15.7,5.6c0-0.1,0-0.2,0-0.3c-0.1-0.4-0.4-0.7-0.9-0.7c-0.6,0-1,0.6-1,1.3
			c0,0.7,0.3,1.3,1,1.3c0.4,0,0.8-0.3,0.9-0.7c0-0.1,0-0.2,0-0.3V5.6z"/>
		<path class="st0"  fill="#FFFFFF"  d="M20.4,5.9c0,1.3-0.9,1.8-1.7,1.8c-0.9,0-1.6-0.7-1.6-1.7c0-1.1,0.7-1.8,1.7-1.8C19.7,4.2,20.4,4.9,20.4,5.9z
			 M17.7,5.9c0,0.7,0.4,1.3,1,1.3c0.6,0,1-0.6,1-1.3c0-0.6-0.3-1.3-1-1.3S17.7,5.3,17.7,5.9z"/>
		<path class="st0"  fill="#FFFFFF" d="M21.2,5.1c0-0.4,0-0.6,0-0.9h0.5l0,0.6h0c0.2-0.3,0.6-0.6,1.1-0.6c0.5,0,1.2,0.3,1.2,1.4v2h-0.6v-2
			c0-0.5-0.2-1-0.8-1c-0.4,0-0.7,0.3-0.8,0.6c0,0.1,0,0.2,0,0.3v2h-0.6V5.1z"/>
		<path class="st0"  fill="#FFFFFF" d="M28,5.5V6h-1.7V5.5H28z"/>
		<path class="st0"  fill="#FFFFFF" d="M30.8,2.9v2.8c0,1.1,0.5,1.5,1.1,1.5c0.7,0,1.1-0.5,1.1-1.5V2.9h0.6v2.8c0,1.5-0.8,2-1.8,2
			c-1,0-1.7-0.6-1.7-2V2.9H30.8z"/>
		<path class="st0" fill="#FFFFFF"  d="M34.7,2.9h0.6v2.3h0c0.1-0.2,0.3-0.4,0.4-0.5l1.4-1.8h0.8l-1.7,2l1.8,2.7h-0.7l-1.6-2.3l-0.4,0.5v1.8h-0.6
			V2.9z"/>
		<path class="st0"  fill="#FFFFFF" d="M56.6,3.9v1.6h1.6V6h-1.6v1.7h-0.4V6h-1.6V5.5h1.6V3.9H56.6z"/>
		<path class="st0"  fill="#FFFFFF" d="M60.7,7.6V6.4h-2.1V6l2-2.9h0.7v2.8h0.6v0.5h-0.6v1.2H60.7z M60.7,5.9V4.4c0-0.2,0-0.5,0-0.7h0
			c-0.1,0.3-0.3,0.5-0.4,0.7l-1.1,1.5v0H60.7z"/>
		<path class="st0"  fill="#FFFFFF" d="M64.3,7.6V6.4h-2.1V6l2-2.9h0.7v2.8h0.6v0.5h-0.6v1.2H64.3z M64.3,5.9V4.4c0-0.2,0-0.5,0-0.7h0
			c-0.1,0.3-0.3,0.5-0.4,0.7l-1.1,1.5v0H64.3z"/>
		<path class="st0"  fill="#FFFFFF" d="M68.9,3.1v0.4l-2,4.1h-0.6l2-4v0h-2.2V3.1H68.9z"/>
		<path class="st0"  fill="#FFFFFF" d="M71.5,7.6V6.4h-2.1V6l2-2.9H72v2.8h0.6v0.5H72v1.2H71.5z M71.5,5.9V4.4c0-0.2,0-0.5,0-0.7h0
			c-0.1,0.3-0.3,0.5-0.4,0.7L70,5.9v0H71.5z"/>
		<path class="st0"  fill="#FFFFFF" d="M73.1,6.5c0-0.6,0.3-1,0.9-1.2l0,0c-0.5-0.2-0.7-0.6-0.7-1c0-0.7,0.6-1.2,1.4-1.2C75.6,3,76,3.5,76,4.1
			c0,0.4-0.2,0.8-0.8,1.1v0c0.6,0.2,0.9,0.6,0.9,1.2c0,0.8-0.7,1.3-1.5,1.3C73.7,7.7,73.1,7.1,73.1,6.5z M75.6,6.4
			c0-0.6-0.4-0.8-1-1c-0.5,0.2-0.8,0.5-0.8,0.9c0,0.5,0.3,0.9,0.9,0.9C75.2,7.2,75.6,6.9,75.6,6.4z M73.9,4.2c0,0.5,0.3,0.7,0.9,0.8
			c0.4-0.1,0.7-0.4,0.7-0.8c0-0.4-0.2-0.7-0.8-0.7C74.1,3.4,73.9,3.8,73.9,4.2z"/>
		<path class="st0"  fill="#FFFFFF" d="M78.1,3.6L78.1,3.6l-0.8,0.4l-0.1-0.5l1-0.5h0.5v4.6h-0.6V3.6z"/>
		<path class="st0"  fill="#FFFFFF" d="M80.5,6.9c0.2,0.1,0.6,0.3,1,0.3c0.8,0,1-0.5,1-0.9c0-0.6-0.6-0.9-1.2-0.9H81V4.9h0.3c0.4,0,1-0.2,1-0.8
			c0-0.4-0.2-0.7-0.8-0.7c-0.4,0-0.7,0.2-0.9,0.3l-0.2-0.4C80.7,3.2,81.2,3,81.7,3C82.6,3,83,3.5,83,4.1c0,0.5-0.3,0.9-0.8,1.1v0
			c0.6,0.1,1,0.5,1,1.2c0,0.7-0.6,1.4-1.7,1.4c-0.5,0-1-0.2-1.2-0.3L80.5,6.9z"/>
		<path class="st0"  fill="#FFFFFF" d="M86.5,3.5c-0.1,0-0.3,0-0.5,0c-1,0.2-1.5,0.9-1.6,1.6h0c0.2-0.3,0.6-0.5,1.1-0.5c0.8,0,1.4,0.6,1.4,1.5
			c0,0.8-0.6,1.6-1.5,1.6c-1,0-1.6-0.8-1.6-1.9c0-0.9,0.3-1.6,0.8-2.1C85,3.3,85.5,3.1,86.1,3c0.2,0,0.3,0,0.4,0V3.5z M86.4,6.1
			c0-0.7-0.4-1-0.9-1c-0.4,0-0.7,0.2-0.9,0.6c0,0.1-0.1,0.2-0.1,0.3c0,0.7,0.4,1.3,1,1.3C86,7.2,86.4,6.8,86.4,6.1z"/>
		<path class="st0"  fill="#FFFFFF" d="M87.5,7.6V7.2L88,6.8c1.2-1.1,1.7-1.7,1.7-2.4c0-0.5-0.2-0.9-0.9-0.9c-0.4,0-0.8,0.2-1,0.4l-0.2-0.4
			C87.9,3.2,88.4,3,88.9,3c1,0,1.4,0.7,1.4,1.3c0,0.8-0.6,1.5-1.6,2.4l-0.4,0.3v0h2v0.5H87.5z"/>
		<path class="st0"  fill="#FFFFFF" d="M91.1,6.5c0-0.6,0.3-1,0.9-1.2l0,0c-0.5-0.2-0.7-0.6-0.7-1c0-0.7,0.6-1.2,1.4-1.2C93.5,3,94,3.5,94,4.1
			c0,0.4-0.2,0.8-0.8,1.1v0c0.6,0.2,0.9,0.6,0.9,1.2c0,0.8-0.7,1.3-1.5,1.3C91.6,7.7,91.1,7.1,91.1,6.5z M93.5,6.4
			c0-0.6-0.4-0.8-1-1c-0.5,0.2-0.8,0.5-0.8,0.9c0,0.5,0.3,0.9,0.9,0.9C93.1,7.2,93.5,6.9,93.5,6.4z M91.8,4.2c0,0.5,0.3,0.7,0.9,0.8
			c0.4-0.1,0.7-0.4,0.7-0.8c0-0.4-0.2-0.7-0.8-0.7C92.1,3.4,91.8,3.8,91.8,4.2z"/>
		<path class="st0"  fill="#FFFFFF" d="M97.7,5.3c0,1.5-0.6,2.4-1.6,2.4c-0.9,0-1.5-0.8-1.5-2.3c0-1.5,0.7-2.4,1.6-2.4C97.2,3,97.7,3.8,97.7,5.3z
			 M95.3,5.4c0,1.2,0.4,1.9,0.9,1.9c0.6,0,0.9-0.7,0.9-1.9c0-1.1-0.3-1.9-0.9-1.9C95.6,3.5,95.3,4.1,95.3,5.4z"/>
		<path class="st0"  fill="#FFFFFF" d="M98.3,7.6V7.2l0.5-0.5c1.2-1.1,1.7-1.7,1.7-2.4c0-0.5-0.2-0.9-0.9-0.9c-0.4,0-0.8,0.2-1,0.4l-0.2-0.4
			C98.7,3.2,99.2,3,99.7,3c1,0,1.4,0.7,1.4,1.3c0,0.8-0.6,1.5-1.6,2.4l-0.4,0.3v0h2v0.5H98.3z"/>
		<path class="st0"  fill="#FFFFFF" d="M3.1,11.3V16H2.5v-4.7H3.1z"/>
		<path class="st0"  fill="#FFFFFF" d="M4,15.4c0.2,0.1,0.5,0.2,0.8,0.2c0.4,0,0.7-0.2,0.7-0.5c0-0.3-0.2-0.5-0.6-0.6C4.3,14.3,4,14,4,13.5
			c0-0.5,0.4-1,1.2-1c0.3,0,0.6,0.1,0.8,0.2l-0.2,0.4C5.7,13.1,5.4,13,5.1,13c-0.4,0-0.6,0.2-0.6,0.5c0,0.3,0.2,0.4,0.6,0.6
			c0.6,0.2,0.9,0.5,0.9,1c0,0.6-0.5,1-1.3,1c-0.4,0-0.7-0.1-1-0.2L4,15.4z"/>
		<path class="st0"  fill="#FFFFFF" d="M7.6,11.7v1h0.9v0.5H7.6v1.8c0,0.4,0.1,0.7,0.5,0.7c0.2,0,0.3,0,0.4,0l0,0.5c-0.1,0-0.3,0.1-0.5,0.1
			c-0.3,0-0.5-0.1-0.7-0.3C7.1,15.6,7,15.3,7,14.9v-1.8H6.5v-0.5H7v-0.8L7.6,11.7z"/>
		<path class="st0"  fill="#FFFFFF" d="M11.1,16l0-0.4h0c-0.2,0.3-0.6,0.5-1,0.5c-0.7,0-1-0.5-1-1c0-0.8,0.7-1.3,2-1.3v-0.1c0-0.3-0.1-0.8-0.8-0.8
			c-0.3,0-0.6,0.1-0.9,0.3l-0.1-0.4c0.3-0.2,0.7-0.3,1.1-0.3c1,0,1.3,0.7,1.3,1.4v1.3c0,0.3,0,0.6,0.1,0.8H11.1z M11,14.3
			c-0.7,0-1.4,0.1-1.4,0.8c0,0.4,0.3,0.6,0.6,0.6c0.4,0,0.7-0.3,0.8-0.6c0-0.1,0-0.1,0-0.2V14.3z"/>
		<path class="st0"  fill="#FFFFFF" d="M12.6,13.5c0-0.4,0-0.6,0-0.9h0.5l0,0.6h0c0.2-0.3,0.6-0.6,1.1-0.6c0.5,0,1.2,0.3,1.2,1.4v2h-0.6v-2
			c0-0.5-0.2-1-0.8-1c-0.4,0-0.7,0.3-0.8,0.6c0,0.1,0,0.2,0,0.3v2h-0.6V13.5z"/>
		<path class="st0"  fill="#FFFFFF" d="M16.4,16c0-0.2,0-0.6,0-0.9V11h0.6v2.1h0c0.2-0.4,0.6-0.6,1.2-0.6c0.8,0,1.4,0.7,1.4,1.7
			c0,1.2-0.8,1.8-1.5,1.8c-0.5,0-0.9-0.2-1.1-0.6h0l0,0.6H16.4z M17.1,14.7c0,0.1,0,0.2,0,0.2c0.1,0.4,0.5,0.7,0.9,0.7
			c0.6,0,1-0.5,1-1.3c0-0.7-0.4-1.3-1-1.3c-0.4,0-0.8,0.3-0.9,0.8c0,0.1,0,0.2,0,0.3V14.7z"/>
		<path class="st0"  fill="#FFFFFF" d="M23.3,15.1c0,0.4,0,0.7,0,0.9h-0.5l0-0.6h0c-0.2,0.3-0.5,0.6-1.1,0.6c-0.5,0-1.2-0.3-1.2-1.5v-2H21v1.9
			c0,0.6,0.2,1.1,0.8,1.1c0.4,0,0.7-0.3,0.8-0.6c0-0.1,0.1-0.2,0.1-0.3v-2.1h0.6V15.1z"/>
		<path class="st0"  fill="#FFFFFF" d="M24.3,11h0.6v5h-0.6V11z"/>
		<path class="st0"  fill="#FFFFFF" d="M28.9,13.9v0.5h-1.7v-0.5H28.9z"/>
		<path class="st0"  fill="#FFFFFF" d="M31.7,11.8h-1.4v-0.5h3.5v0.5h-1.4V16h-0.6V11.8z"/>
		<path class="st0"  fill="#FFFFFF" d="M36.8,15.1c0,0.4,0,0.7,0,0.9h-0.5l0-0.6h0c-0.2,0.3-0.5,0.6-1.1,0.6c-0.5,0-1.2-0.3-1.2-1.5v-2h0.6v1.9
			c0,0.6,0.2,1.1,0.8,1.1c0.4,0,0.7-0.3,0.8-0.6c0-0.1,0.1-0.2,0.1-0.3v-2.1h0.6V15.1z"/>
		<path class="st0"  fill="#FFFFFF" d="M37.8,13.7c0-0.4,0-0.7,0-1.1h0.5l0,0.7h0c0.2-0.5,0.5-0.7,0.9-0.7c0.1,0,0.1,0,0.2,0v0.6c-0.1,0-0.1,0-0.2,0
			c-0.4,0-0.7,0.3-0.8,0.8c0,0.1,0,0.2,0,0.3V16h-0.6V13.7z"/>
		<path class="st0"  fill="#FFFFFF" d="M40.7,14.2L40.7,14.2c0.1-0.1,0.2-0.3,0.3-0.4l1-1.2h0.7L41.5,14l1.5,2h-0.7L41,14.4l-0.3,0.4V16h-0.6v-5h0.6
			V14.2z"/>
		<path class="st0"  fill="#FFFFFF" d="M43.7,14.4c0,0.8,0.5,1.2,1.2,1.2c0.4,0,0.7-0.1,0.9-0.2l0.1,0.4c-0.2,0.1-0.6,0.2-1.1,0.2
			c-1,0-1.7-0.7-1.7-1.7c0-1,0.6-1.8,1.6-1.8c1.1,0,1.4,1,1.4,1.6c0,0.1,0,0.2,0,0.3H43.7z M45.6,14c0-0.4-0.2-1-0.9-1
			c-0.6,0-0.9,0.6-0.9,1H45.6z"/>
		<path class="st0"  fill="#FFFFFF" d="M47.1,12.6l0.7,2c0.1,0.2,0.2,0.5,0.2,0.7h0c0.1-0.2,0.1-0.5,0.2-0.7l0.7-2h0.7L48.7,15
			c-0.4,1.2-0.7,1.8-1.2,2.1c-0.3,0.3-0.6,0.4-0.8,0.4L46.7,17c0.2,0,0.4-0.1,0.5-0.3c0.2-0.1,0.4-0.4,0.5-0.7c0-0.1,0-0.1,0-0.1
			c0,0,0-0.1,0-0.2l-1.3-3.1H47.1z"/>
		<path class="st0"  fill="#FFFFFF" d="M56.5,12.3v1.6H58v0.4h-1.6V16H56v-1.7h-1.6v-0.4H56v-1.6H56.5z"/>
		<path class="st0"  fill="#FFFFFF" d="M59,15.6c0.1,0,0.3,0,0.5,0c0.4,0,0.7-0.2,1-0.4c0.3-0.3,0.5-0.7,0.6-1.2h0c-0.3,0.3-0.6,0.5-1.1,0.5
			c-0.8,0-1.3-0.6-1.3-1.4c0-0.9,0.6-1.6,1.6-1.6c0.9,0,1.5,0.8,1.5,1.9c0,1-0.3,1.7-0.8,2.1c-0.4,0.3-0.8,0.6-1.3,0.6
			c-0.2,0-0.4,0-0.6,0V15.6z M59.2,13c0,0.6,0.3,1,0.9,1c0.4,0,0.7-0.2,0.9-0.5c0-0.1,0.1-0.1,0.1-0.2c0-0.8-0.3-1.4-0.9-1.4
			C59.6,11.9,59.2,12.3,59.2,13z"/>
		<path class="st0"  fill="#FFFFFF" d="M65.3,13.7c0,1.5-0.6,2.4-1.6,2.4c-0.9,0-1.5-0.8-1.5-2.3c0-1.5,0.7-2.4,1.6-2.4
			C64.7,11.4,65.3,12.2,65.3,13.7z M62.8,13.8c0,1.2,0.4,1.9,0.9,1.9c0.6,0,0.9-0.7,0.9-1.9c0-1.1-0.3-1.9-0.9-1.9
			C63.2,11.9,62.8,12.5,62.8,13.8z"/>
		<path class="st0"  fill="#FFFFFF" d="M68.5,12h-1.7l-0.2,1.2c0.1,0,0.2,0,0.4,0c0.3,0,0.7,0.1,1,0.2c0.4,0.2,0.7,0.6,0.7,1.2
			c0,0.9-0.7,1.6-1.7,1.6c-0.5,0-0.9-0.1-1.1-0.3l0.2-0.5c0.2,0.1,0.6,0.3,1,0.3c0.6,0,1.1-0.4,1.1-1c0-0.6-0.4-1-1.3-1
			c-0.3,0-0.5,0-0.6,0l0.3-2.2h2.2V12z"/>
		<path class="st0"  fill="#FFFFFF" d="M69.6,15.3c0.2,0.1,0.6,0.3,1,0.3c0.8,0,1-0.5,1-0.9c0-0.6-0.6-0.9-1.2-0.9h-0.3v-0.5h0.3c0.4,0,1-0.2,1-0.8
			c0-0.4-0.2-0.7-0.8-0.7c-0.4,0-0.7,0.2-0.9,0.3l-0.2-0.4c0.2-0.2,0.7-0.4,1.2-0.4c0.9,0,1.3,0.5,1.3,1.1c0,0.5-0.3,0.9-0.8,1.1v0
			c0.6,0.1,1,0.5,1,1.2c0,0.7-0.6,1.4-1.7,1.4c-0.5,0-1-0.2-1.2-0.3L69.6,15.3z"/>
		<path class="st0"  fill="#FFFFFF" d="M73.4,15.6c0.1,0,0.3,0,0.5,0c0.4,0,0.7-0.2,1-0.4c0.3-0.3,0.5-0.7,0.6-1.2h0c-0.3,0.3-0.6,0.5-1.1,0.5
			c-0.8,0-1.3-0.6-1.3-1.4c0-0.9,0.6-1.6,1.6-1.6s1.5,0.8,1.5,1.9c0,1-0.3,1.7-0.8,2.1c-0.4,0.3-0.8,0.6-1.3,0.6c-0.2,0-0.4,0-0.6,0
			V15.6z M73.6,13c0,0.6,0.3,1,0.9,1c0.4,0,0.7-0.2,0.9-0.5c0-0.1,0.1-0.1,0.1-0.2c0-0.8-0.3-1.4-0.9-1.4C74,11.9,73.6,12.3,73.6,13
			z"/>
		<path class="st0"  fill="#FFFFFF" d="M79.3,12h-1.7l-0.2,1.2c0.1,0,0.2,0,0.4,0c0.3,0,0.7,0.1,1,0.2c0.4,0.2,0.7,0.6,0.7,1.2
			c0,0.9-0.7,1.6-1.7,1.6c-0.5,0-0.9-0.1-1.1-0.3l0.2-0.5c0.2,0.1,0.6,0.3,1,0.3c0.6,0,1.1-0.4,1.1-1c0-0.6-0.4-1-1.3-1
			c-0.3,0-0.5,0-0.6,0l0.3-2.2h2.2V12z"/>
		<path class="st0"  fill="#FFFFFF" d="M80.5,15.6c0.1,0,0.3,0,0.5,0c0.4,0,0.7-0.2,1-0.4c0.3-0.3,0.5-0.7,0.6-1.2h0c-0.3,0.3-0.6,0.5-1.1,0.5
			c-0.8,0-1.3-0.6-1.3-1.4c0-0.9,0.6-1.6,1.6-1.6s1.5,0.8,1.5,1.9c0,1-0.3,1.7-0.8,2.1c-0.4,0.3-0.8,0.6-1.3,0.6c-0.2,0-0.4,0-0.6,0
			V15.6z M80.8,13c0,0.6,0.3,1,0.9,1c0.4,0,0.7-0.2,0.9-0.5c0-0.1,0.1-0.1,0.1-0.2c0-0.8-0.3-1.4-0.9-1.4
			C81.1,11.9,80.8,12.3,80.8,13z"/>
		<path class="st0"  fill="#FFFFFF" d="M84.1,15.6c0.1,0,0.3,0,0.5,0c0.4,0,0.7-0.2,1-0.4c0.3-0.3,0.5-0.7,0.6-1.2h0c-0.3,0.3-0.6,0.5-1.1,0.5
			c-0.8,0-1.3-0.6-1.3-1.4c0-0.9,0.6-1.6,1.6-1.6s1.5,0.8,1.5,1.9c0,1-0.3,1.7-0.8,2.1c-0.4,0.3-0.8,0.6-1.3,0.6c-0.2,0-0.4,0-0.6,0
			V15.6z M84.4,13c0,0.6,0.3,1,0.9,1c0.4,0,0.7-0.2,0.9-0.5c0-0.1,0.1-0.1,0.1-0.2c0-0.8-0.3-1.4-0.9-1.4
			C84.7,11.9,84.4,12.3,84.4,13z"/>
		<path class="st0"  fill="#FFFFFF" d="M88.7,12L88.7,12l-0.8,0.4L87.8,12l1-0.5h0.5V16h-0.6V12z"/>
		<path class="st0"  fill="#FFFFFF" d="M91,16v-0.4l0.5-0.5c1.2-1.1,1.7-1.7,1.7-2.4c0-0.5-0.2-0.9-0.9-0.9c-0.4,0-0.8,0.2-1,0.4l-0.2-0.4
			c0.3-0.3,0.8-0.5,1.3-0.5c1,0,1.4,0.7,1.4,1.3c0,0.8-0.6,1.5-1.6,2.4l-0.4,0.3v0h2V16H91z"/>
		<path class="st0"  fill="#FFFFFF" d="M97.6,13.7c0,1.5-0.6,2.4-1.6,2.4c-0.9,0-1.5-0.8-1.5-2.3c0-1.5,0.7-2.4,1.6-2.4C97,11.4,97.6,12.2,97.6,13.7
			z M95.1,13.8c0,1.2,0.4,1.9,0.9,1.9c0.6,0,0.9-0.7,0.9-1.9c0-1.1-0.3-1.9-0.9-1.9C95.5,11.9,95.1,12.5,95.1,13.8z"/>
		<path class="st0"  fill="#FFFFFF" d="M100.7,11.9c-0.1,0-0.3,0-0.5,0c-1,0.2-1.5,0.9-1.6,1.6h0c0.2-0.3,0.6-0.5,1.1-0.5c0.8,0,1.4,0.6,1.4,1.5
			c0,0.8-0.6,1.6-1.5,1.6c-1,0-1.6-0.8-1.6-1.9c0-0.9,0.3-1.6,0.8-2.1c0.4-0.4,0.9-0.6,1.5-0.7c0.2,0,0.3,0,0.4,0V11.9z M100.6,14.5
			c0-0.7-0.4-1-0.9-1c-0.4,0-0.7,0.2-0.9,0.6c0,0.1-0.1,0.2-0.1,0.3c0,0.7,0.4,1.3,1,1.3C100.2,15.6,100.6,15.2,100.6,14.5z"/>
		<path class="st0"  fill="#FFFFFF" d="M3.2,22.9l-0.5,1.5H2.1l1.6-4.7h0.7l1.6,4.7H5.4l-0.5-1.5H3.2z M4.8,22.5l-0.5-1.4c-0.1-0.3-0.2-0.6-0.2-0.9
			h0c-0.1,0.3-0.1,0.6-0.2,0.9l-0.5,1.4H4.8z"/>
		<path class="st0"  fill="#FFFFFF" d="M6.7,21.9c0-0.3,0-0.6,0-0.9h0.5l0,0.5h0C7.5,21.3,7.8,21,8.3,21c0.5,0,0.8,0.3,1,0.7h0
			c0.1-0.2,0.2-0.3,0.4-0.4C9.9,21,10.1,21,10.4,21c0.4,0,1.1,0.3,1.1,1.5v2h-0.6v-1.9c0-0.7-0.2-1-0.7-1c-0.4,0-0.6,0.3-0.7,0.6
			c0,0.1,0,0.2,0,0.3v2.1H8.8v-2c0-0.5-0.2-0.9-0.7-0.9c-0.4,0-0.7,0.3-0.8,0.6c0,0.1,0,0.2,0,0.3v2H6.7V21.9z"/>
		<path class="st0"  fill="#FFFFFF" d="M12.5,21.9c0-0.3,0-0.6,0-0.9h0.5l0,0.5h0c0.2-0.3,0.5-0.6,1.1-0.6c0.5,0,0.8,0.3,1,0.7h0
			c0.1-0.2,0.2-0.3,0.4-0.4c0.2-0.2,0.4-0.2,0.7-0.2c0.4,0,1.1,0.3,1.1,1.5v2h-0.6v-1.9c0-0.7-0.2-1-0.7-1c-0.4,0-0.6,0.3-0.7,0.6
			c0,0.1,0,0.2,0,0.3v2.1h-0.6v-2c0-0.5-0.2-0.9-0.7-0.9c-0.4,0-0.7,0.3-0.8,0.6c0,0.1,0,0.2,0,0.3v2h-0.6V21.9z"/>
		<path class="st0"  fill="#FFFFFF" d="M20.3,24.4l0-0.4h0c-0.2,0.3-0.6,0.5-1,0.5c-0.7,0-1-0.5-1-1c0-0.8,0.7-1.3,2-1.3v-0.1c0-0.3-0.1-0.8-0.8-0.8
			c-0.3,0-0.6,0.1-0.9,0.3l-0.1-0.4c0.3-0.2,0.7-0.3,1.1-0.3c1,0,1.3,0.7,1.3,1.4v1.3c0,0.3,0,0.6,0.1,0.8H20.3z M20.2,22.7
			c-0.7,0-1.4,0.1-1.4,0.8c0,0.4,0.3,0.6,0.6,0.6c0.4,0,0.7-0.3,0.8-0.6c0-0.1,0-0.1,0-0.2V22.7z"/>
		<path class="st0"  fill="#FFFFFF" d="M21.8,21.9c0-0.3,0-0.6,0-0.9h0.5l0,0.6h0c0.2-0.3,0.6-0.6,1.1-0.6c0.5,0,1.2,0.3,1.2,1.4v2H24v-2
			c0-0.5-0.2-1-0.8-1c-0.4,0-0.7,0.3-0.8,0.6c0,0.1,0,0.2,0,0.3v2h-0.6V21.9z"/>
		<path class="st0"  fill="#FFFFFF" d="M28.6,22.3v0.5h-1.7v-0.5H28.6z"/>
		<path class="st0"  fill="#FFFFFF" d="M31.7,19.7h0.6v3.2c0,1.3-0.6,1.6-1.4,1.6c-0.2,0-0.5,0-0.7-0.1l0.1-0.5c0.1,0,0.3,0.1,0.5,0.1
			c0.5,0,0.9-0.2,0.9-1.2V19.7z"/>
		<path class="st0"  fill="#FFFFFF" d="M36.4,22.7c0,1.3-0.9,1.8-1.7,1.8c-0.9,0-1.6-0.7-1.6-1.7c0-1.1,0.7-1.8,1.7-1.8C35.8,21,36.4,21.7,36.4,22.7
			z M33.7,22.7c0,0.7,0.4,1.3,1,1.3c0.6,0,1-0.6,1-1.3c0-0.6-0.3-1.3-1-1.3S33.7,22.1,33.7,22.7z"/>
		<path class="st0"  fill="#FFFFFF" d="M37.2,22.1c0-0.4,0-0.7,0-1.1h0.5l0,0.7h0c0.2-0.5,0.5-0.7,0.9-0.7c0.1,0,0.1,0,0.2,0v0.6c-0.1,0-0.1,0-0.2,0
			c-0.4,0-0.7,0.3-0.8,0.8c0,0.1,0,0.2,0,0.3v1.8h-0.6V22.1z"/>
		<path class="st0"  fill="#FFFFFF" d="M42.3,19.4v4.1c0,0.3,0,0.6,0,0.9h-0.6l0-0.6h0c-0.2,0.4-0.6,0.7-1.2,0.7c-0.8,0-1.4-0.7-1.4-1.7
			c0-1.1,0.7-1.8,1.5-1.8c0.5,0,0.9,0.2,1,0.5h0v-2H42.3z M41.7,22.4c0-0.1,0-0.2,0-0.3c-0.1-0.4-0.4-0.7-0.9-0.7
			c-0.6,0-1,0.6-1,1.3c0,0.7,0.3,1.3,1,1.3c0.4,0,0.8-0.3,0.9-0.7c0-0.1,0-0.2,0-0.3V22.4z"/>
		<path class="st0"  fill="#FFFFFF" d="M45.2,24.4l0-0.4h0c-0.2,0.3-0.6,0.5-1,0.5c-0.7,0-1-0.5-1-1c0-0.8,0.7-1.3,2-1.3v-0.1c0-0.3-0.1-0.8-0.8-0.8
			c-0.3,0-0.6,0.1-0.9,0.3l-0.1-0.4c0.3-0.2,0.7-0.3,1.1-0.3c1,0,1.3,0.7,1.3,1.4v1.3c0,0.3,0,0.6,0.1,0.8H45.2z M45.1,22.7
			c-0.7,0-1.4,0.1-1.4,0.8c0,0.4,0.3,0.6,0.6,0.6c0.4,0,0.7-0.3,0.8-0.6c0-0.1,0-0.1,0-0.2V22.7z"/>
		<path class="st0"  fill="#FFFFFF" d="M46.7,21.9c0-0.3,0-0.6,0-0.9h0.5l0,0.6h0c0.2-0.3,0.6-0.6,1.1-0.6c0.5,0,1.2,0.3,1.2,1.4v2H49v-2
			c0-0.5-0.2-1-0.8-1c-0.4,0-0.7,0.3-0.8,0.6c0,0.1,0,0.2,0,0.3v2h-0.6V21.9z"/>
		<path class="st0"  fill="#FFFFFF" d="M56.9,20.7v1.6h1.6v0.4h-1.6v1.7h-0.4v-1.7h-1.6v-0.4h1.6v-1.6H56.9z"/>
		<path class="st0"  fill="#FFFFFF" d="M59.4,24c0.1,0,0.3,0,0.5,0c0.4,0,0.7-0.2,1-0.4c0.3-0.3,0.5-0.7,0.6-1.2h0c-0.3,0.3-0.6,0.5-1.1,0.5
			c-0.8,0-1.3-0.6-1.3-1.4c0-0.9,0.6-1.6,1.6-1.6c0.9,0,1.5,0.8,1.5,1.9c0,1-0.3,1.7-0.8,2.1c-0.4,0.3-0.8,0.6-1.3,0.6
			c-0.2,0-0.4,0-0.6,0V24z M59.6,21.4c0,0.6,0.3,1,0.9,1c0.4,0,0.7-0.2,0.9-0.5c0-0.1,0.1-0.1,0.1-0.2c0-0.8-0.3-1.4-0.9-1.4
			C60,20.3,59.6,20.7,59.6,21.4z"/>
		<path class="st0"  fill="#FFFFFF" d="M65.2,20.3c-0.1,0-0.3,0-0.5,0c-1,0.2-1.5,0.9-1.6,1.6h0c0.2-0.3,0.6-0.5,1.1-0.5c0.8,0,1.4,0.6,1.4,1.5
			c0,0.8-0.6,1.6-1.5,1.6c-1,0-1.6-0.8-1.6-1.9c0-0.9,0.3-1.6,0.8-2.1c0.4-0.4,0.9-0.6,1.5-0.7c0.2,0,0.3,0,0.4,0V20.3z M65.1,22.9
			c0-0.7-0.4-1-0.9-1c-0.4,0-0.7,0.2-0.9,0.6c0,0.1-0.1,0.2-0.1,0.3c0,0.8,0.4,1.3,1,1.3C64.7,24,65.1,23.6,65.1,22.9z"/>
		<path class="st0"  fill="#FFFFFF" d="M66.2,24.4V24l0.5-0.5c1.2-1.1,1.7-1.7,1.7-2.4c0-0.5-0.2-0.9-0.9-0.9c-0.4,0-0.8,0.2-1,0.4l-0.2-0.4
			c0.3-0.3,0.8-0.5,1.3-0.5c1,0,1.4,0.7,1.4,1.3c0,0.8-0.6,1.5-1.6,2.4l-0.4,0.3v0h2v0.5H66.2z"/>
		<path class="st0"  fill="#FFFFFF" d="M72.8,19.9v0.4l-2,4.1h-0.6l2-4v0h-2.2v-0.5H72.8z"/>
		<path class="st0"  fill="#FFFFFF" d="M73.4,23.3c0-0.6,0.3-1,0.9-1.2l0,0c-0.5-0.2-0.7-0.6-0.7-1c0-0.7,0.6-1.2,1.4-1.2c0.9,0,1.3,0.6,1.3,1.1
			c0,0.4-0.2,0.8-0.8,1.1v0c0.6,0.2,0.9,0.6,0.9,1.2c0,0.8-0.7,1.3-1.5,1.3C73.9,24.5,73.4,23.9,73.4,23.3z M75.8,23.2
			c0-0.6-0.4-0.8-1-1c-0.5,0.2-0.8,0.5-0.8,0.9c0,0.5,0.3,0.9,0.9,0.9C75.4,24,75.8,23.7,75.8,23.2z M74.1,21c0,0.5,0.3,0.7,0.9,0.8
			c0.4-0.1,0.7-0.4,0.7-0.8c0-0.4-0.2-0.7-0.8-0.7C74.4,20.2,74.1,20.6,74.1,21z"/>
		<path class="st0"  fill="#FFFFFF" d="M79.7,20.4H78l-0.2,1.2c0.1,0,0.2,0,0.4,0c0.3,0,0.7,0.1,1,0.2c0.4,0.2,0.7,0.6,0.7,1.2
			c0,0.9-0.7,1.6-1.7,1.6c-0.5,0-0.9-0.1-1.1-0.3l0.2-0.5c0.2,0.1,0.6,0.3,1,0.3c0.6,0,1.1-0.4,1.1-1c0-0.6-0.4-1-1.3-1
			c-0.3,0-0.5,0-0.6,0l0.3-2.2h2.2V20.4z"/>
		<path class="st0"  fill="#FFFFFF" d="M83.2,20.3c-0.1,0-0.3,0-0.5,0c-1,0.2-1.5,0.9-1.6,1.6h0c0.2-0.3,0.6-0.5,1.1-0.5c0.8,0,1.4,0.6,1.4,1.5
			c0,0.8-0.6,1.6-1.5,1.6c-1,0-1.6-0.8-1.6-1.9c0-0.9,0.3-1.6,0.8-2.1c0.4-0.4,0.9-0.6,1.5-0.7c0.2,0,0.3,0,0.4,0V20.3z M83,22.9
			c0-0.7-0.4-1-0.9-1c-0.4,0-0.7,0.2-0.9,0.6c0,0.1-0.1,0.2-0.1,0.3c0,0.8,0.4,1.3,1,1.3C82.7,24,83,23.6,83,22.9z"/>
		<path class="st0"  fill="#FFFFFF" d="M86.8,20.3c-0.1,0-0.3,0-0.5,0c-1,0.2-1.5,0.9-1.6,1.6h0c0.2-0.3,0.6-0.5,1.1-0.5c0.8,0,1.4,0.6,1.4,1.5
			c0,0.8-0.6,1.6-1.5,1.6c-1,0-1.6-0.8-1.6-1.9c0-0.9,0.3-1.6,0.8-2.1c0.4-0.4,0.9-0.6,1.5-0.7c0.2,0,0.3,0,0.4,0V20.3z M86.6,22.9
			c0-0.7-0.4-1-0.9-1c-0.4,0-0.7,0.2-0.9,0.6c0,0.1-0.1,0.2-0.1,0.3c0,0.8,0.4,1.3,1,1.3C86.2,24,86.6,23.6,86.6,22.9z"/>
		<path class="st0"  fill="#FFFFFF" d="M90.4,20.3c-0.1,0-0.3,0-0.5,0c-1,0.2-1.5,0.9-1.6,1.6h0c0.2-0.3,0.6-0.5,1.1-0.5c0.8,0,1.4,0.6,1.4,1.5
			c0,0.8-0.6,1.6-1.5,1.6c-1,0-1.6-0.8-1.6-1.9c0-0.9,0.3-1.6,0.8-2.1c0.4-0.4,0.9-0.6,1.5-0.7c0.2,0,0.3,0,0.4,0V20.3z M90.2,22.9
			c0-0.7-0.4-1-0.9-1c-0.4,0-0.7,0.2-0.9,0.6c0,0.1-0.1,0.2-0.1,0.3c0,0.8,0.4,1.3,1,1.3C89.8,24,90.2,23.6,90.2,22.9z"/>
		<path class="st0"  fill="#FFFFFF" d="M91.7,24c0.1,0,0.3,0,0.5,0c0.4,0,0.7-0.2,1-0.4c0.3-0.3,0.5-0.7,0.6-1.2h0c-0.3,0.3-0.6,0.5-1.1,0.5
			c-0.8,0-1.3-0.6-1.3-1.4c0-0.9,0.6-1.6,1.6-1.6s1.5,0.8,1.5,1.9c0,1-0.3,1.7-0.8,2.1c-0.4,0.3-0.8,0.6-1.3,0.6c-0.2,0-0.4,0-0.6,0
			V24z M91.9,21.4c0,0.6,0.3,1,0.9,1c0.4,0,0.7-0.2,0.9-0.5c0-0.1,0.1-0.1,0.1-0.2c0-0.8-0.3-1.4-0.9-1.4
			C92.3,20.3,91.9,20.7,91.9,21.4z"/>
		<path class="st0"  fill="#FFFFFF" d="M97.6,20.3c-0.1,0-0.3,0-0.5,0c-1,0.2-1.5,0.9-1.6,1.6h0c0.2-0.3,0.6-0.5,1.1-0.5c0.8,0,1.4,0.6,1.4,1.5
			c0,0.8-0.6,1.6-1.5,1.6c-1,0-1.6-0.8-1.6-1.9c0-0.9,0.3-1.6,0.8-2.1c0.4-0.4,0.9-0.6,1.5-0.7c0.2,0,0.3,0,0.4,0V20.3z M97.4,22.9
			c0-0.7-0.4-1-0.9-1c-0.4,0-0.7,0.2-0.9,0.6c0,0.1-0.1,0.2-0.1,0.3c0,0.8,0.4,1.3,1,1.3C97,24,97.4,23.6,97.4,22.9z"/>
		<path class="st0"  fill="#FFFFFF" d="M101.1,20.3c-0.1,0-0.3,0-0.5,0c-1,0.2-1.5,0.9-1.6,1.6h0c0.2-0.3,0.6-0.5,1.1-0.5c0.8,0,1.4,0.6,1.4,1.5
			c0,0.8-0.6,1.6-1.5,1.6c-1,0-1.6-0.8-1.6-1.9c0-0.9,0.3-1.6,0.8-2.1c0.4-0.4,0.9-0.6,1.5-0.7c0.2,0,0.3,0,0.4,0V20.3z M101,22.9
			c0-0.7-0.4-1-0.9-1c-0.4,0-0.7,0.2-0.9,0.6c0,0.1-0.1,0.2-0.1,0.3c0,0.8,0.4,1.3,1,1.3C100.6,24,101,23.6,101,22.9z"/>
	</g>
</g>
</svg>
