<?xml version="1.0" encoding="utf-8"?>
<!-- Generator: Adobe Illustrator 24.1.1, SVG Export Plug-In . SVG Version: 6.00 Build 0)  -->
<svg version="1.0" id="Layer_1" xmlns="http://www.w3.org/2000/svg" xmlns:xlink="http://www.w3.org/1999/xlink" x="0px" y="0px"
	 viewBox="0 0 40.26 40.26" style="enable-background:new 0 0 40.26 40.26;" xml:space="preserve">
<style type="text/css">
	.st0{fill:#D8B747;}
	.st1{fill:#004A52;}
</style>
<g>
	<path class="st0" d="M40.26,20.13c0,11.11-9.01,20.13-20.13,20.13S0,31.24,0,20.13S9.01,0,20.13,0C31.25,0,40.26,9.01,40.26,20.13"
		/>
	<path class="st1" d="M21.84,10.74c-0.16-0.11-0.36-0.09-0.49,0.06l-0.99,1.26l-0.51-0.58c-0.12-0.15-0.34-0.16-0.49-0.03
		s-0.16,0.34-0.03,0.49l0.64,0.73c0.1,0.11,0.25,0.18,0.4,0.18h0.01c0.16,0,0.3-0.08,0.4-0.21l1.11-1.41
		C22.02,11.08,21.99,10.86,21.84,10.74"/>
	<path class="st1" d="M29.05,10.67h-5.92c-0.19,0-0.34,0.16-0.34,0.34c0,0.19,0.16,0.34,0.34,0.34h5.92c0.19,0,0.34-0.16,0.34-0.34
		C29.4,10.82,29.25,10.67,29.05,10.67"/>
	<path class="st1" d="M29.05,12.15h-5.92c-0.19,0-0.34,0.16-0.34,0.34s0.16,0.34,0.34,0.34h5.92c0.19,0,0.34-0.16,0.34-0.34
		C29.4,12.31,29.25,12.15,29.05,12.15"/>
	<path class="st1" d="M21.84,14.92c-0.16-0.11-0.36-0.09-0.49,0.06l-0.99,1.26l-0.51-0.58c-0.12-0.15-0.34-0.16-0.49-0.03
		s-0.16,0.34-0.03,0.49l0.64,0.73c0.1,0.11,0.25,0.18,0.4,0.18h0.01c0.16,0,0.3-0.08,0.4-0.21l1.11-1.41
		C22.02,15.26,21.99,15.04,21.84,14.92"/>
	<path class="st1" d="M29.05,14.85h-5.92c-0.19,0-0.34,0.16-0.34,0.34s0.16,0.34,0.34,0.34h5.92c0.19,0,0.34-0.16,0.34-0.34
		C29.4,15,29.25,14.85,29.05,14.85"/>
	<path class="st1" d="M29.05,16.33h-5.92c-0.19,0-0.34,0.16-0.34,0.34c0,0.19,0.16,0.34,0.34,0.34h5.92c0.19,0,0.34-0.16,0.34-0.34
		C29.39,16.49,29.25,16.33,29.05,16.33"/>
	<path class="st1" d="M21.84,19.11c-0.16-0.11-0.36-0.09-0.49,0.06l-0.99,1.26l-0.51-0.58c-0.12-0.15-0.34-0.16-0.49-0.03
		c-0.15,0.12-0.16,0.34-0.03,0.49l0.64,0.73c0.1,0.11,0.25,0.18,0.4,0.18h0.01c0.16,0,0.3-0.08,0.4-0.21l1.11-1.41
		C22.02,19.44,21.99,19.22,21.84,19.11"/>
	<path class="st1" d="M29.05,19.03h-5.92c-0.19,0-0.34,0.16-0.34,0.34c0,0.19,0.16,0.34,0.34,0.34h5.92c0.19,0,0.34-0.16,0.34-0.34
		C29.4,19.18,29.25,19.03,29.05,19.03"/>
	<path class="st1" d="M29.05,20.51h-5.92c-0.19,0-0.34,0.16-0.34,0.34c0,0.19,0.16,0.34,0.34,0.34h5.92c0.19,0,0.34-0.16,0.34-0.34
		C29.4,20.67,29.25,20.51,29.05,20.51"/>
	<path class="st1" d="M21.84,23.29c-0.16-0.11-0.36-0.09-0.49,0.06l-0.99,1.26l-0.51-0.58c-0.12-0.15-0.34-0.16-0.49-0.03
		c-0.15,0.12-0.16,0.34-0.03,0.49l0.64,0.73c0.1,0.11,0.25,0.18,0.4,0.18h0.01c0.16,0,0.3-0.08,0.4-0.21l1.11-1.41
		C22.02,23.62,21.99,23.4,21.84,23.29"/>
	<path class="st1" d="M29.05,23.22h-5.92c-0.19,0-0.34,0.16-0.34,0.34s0.16,0.34,0.34,0.34h5.92c0.19,0,0.34-0.16,0.34-0.34
		C29.4,23.37,29.25,23.22,29.05,23.22"/>
	<path class="st1" d="M29.4,25.05c0-0.19-0.16-0.34-0.34-0.34h-5.92c-0.19,0-0.34,0.16-0.34,0.34c0,0.19,0.16,0.34,0.34,0.34h5.92
		C29.25,25.39,29.4,25.23,29.4,25.05"/>
	<path class="st1" d="M21.84,27.47c-0.16-0.11-0.36-0.09-0.49,0.06l-0.99,1.26l-0.51-0.58c-0.12-0.15-0.34-0.16-0.49-0.03
		s-0.16,0.34-0.03,0.49l0.64,0.73c0.1,0.11,0.25,0.18,0.4,0.18h0.01c0.16,0,0.3-0.08,0.4-0.21l1.11-1.41
		C22.02,27.8,21.99,27.58,21.84,27.47"/>
	<path class="st1" d="M25.49,27.39h-2.36c-0.19,0-0.34,0.16-0.34,0.34c0,0.19,0.16,0.34,0.34,0.34h2.36c0.19,0,0.34-0.16,0.34-0.34
		C25.85,27.55,25.69,27.39,25.49,27.39"/>
	<path class="st1" d="M25.49,28.88h-2.36c-0.19,0-0.34,0.16-0.34,0.34c0,0.19,0.16,0.34,0.34,0.34h2.36c0.19,0,0.34-0.16,0.34-0.34
		C25.85,29.04,25.69,28.88,25.49,28.88"/>
	<path class="st1" d="M30.4,8.3h-2.09c-0.19,0-0.34,0.16-0.34,0.34s0.16,0.34,0.34,0.34h2.09c0.06,0,0.11,0.05,0.11,0.11V28h-2.27
		c-0.62,0-1.13,0.51-1.13,1.13v2.13h-11.1c0.15-0.23,0.24-0.51,0.24-0.8v-5.81c0.18,0.09,0.38,0.15,0.6,0.15
		c0.71,0,1.28-0.57,1.28-1.28v-3.35c0-1-0.31-1.94-0.91-2.73c-0.58-0.77-1.4-1.34-2.32-1.61c-0.04-0.01-0.07-0.05-0.07-0.09v-0.27
		c1.14-0.5,1.94-1.64,1.94-2.97c0-1.35-0.83-2.52-2.01-3V9.13c0-0.06,0.05-0.11,0.11-0.11H26.7c0.19,0,0.34-0.16,0.34-0.34
		s-0.16-0.34-0.34-0.34H14.88c-0.45,0-0.81,0.36-0.81,0.81v0.16c-0.18-0.03-0.36-0.05-0.55-0.05c-1.79,0-3.25,1.46-3.25,3.25
		c0,1.38,0.86,2.56,2.08,3.03v0.21c0,0.04-0.03,0.08-0.07,0.09c-0.48,0.15-0.94,0.36-1.34,0.67c-0.16,0.11-0.19,0.33-0.08,0.49
		c0.11,0.16,0.33,0.19,0.49,0.07c0.34-0.25,0.73-0.44,1.14-0.56c0.33-0.1,0.56-0.42,0.56-0.76V15.7c0.16,0.02,0.31,0.04,0.48,0.04
		c0.21,0,0.42-0.02,0.61-0.06v0.05c0,0.34,0.23,0.67,0.56,0.76c0.78,0.23,1.48,0.72,1.96,1.37c0.51,0.67,0.77,1.48,0.77,2.32v3.35
		c0,0.32-0.27,0.59-0.59,0.59c-0.3,0-0.56-0.23-0.6-0.51v-3.87c0-0.19-0.16-0.34-0.34-0.34c-0.19,0-0.34,0.16-0.34,0.34v10.74
		c0,0.45-0.36,0.8-0.81,0.8s-0.81-0.36-0.81-0.8v-6.25c0-0.19-0.16-0.34-0.34-0.34c-0.19,0-0.34,0.16-0.34,0.34v6.25
		c0,0.45-0.36,0.8-0.81,0.8c-0.45,0-0.8-0.36-0.8-0.8V19.65c0-0.19-0.16-0.34-0.34-0.34s-0.34,0.16-0.34,0.34v3.82
		c0,0.33-0.28,0.62-0.6,0.62s-0.59-0.27-0.59-0.59v-3.35c0-0.73,0.2-1.42,0.58-2.04c0.1-0.17,0.05-0.37-0.11-0.48
		c-0.17-0.1-0.37-0.05-0.48,0.11c-0.45,0.72-0.69,1.55-0.69,2.41v3.35c0,0.71,0.57,1.28,1.28,1.28c0.22,0,0.43-0.05,0.6-0.16v5.82
		c0,0.83,0.68,1.5,1.5,1.5c0.47,0,0.88-0.21,1.15-0.54c0.27,0.33,0.69,0.54,1.15,0.54h12.25c0.26,0,0.53,0.05,0.74-0.12
		c0.1-0.08,0.2-0.18,0.28-0.27c0.4-0.37,2.45-2.32,3.09-2.92c0.07-0.06,0.1-0.16,0.1-0.25V9.1C31.21,8.65,30.85,8.3,30.4,8.3
		 M13.53,15.01c-1.41,0-2.56-1.14-2.56-2.56s1.14-2.56,2.56-2.56s2.56,1.14,2.56,2.56C16.08,13.87,14.93,15.01,13.53,15.01
		 M27.82,30.78v-1.66c0-0.24,0.2-0.44,0.44-0.44H30L27.82,30.78z"/>
	<path class="st1" d="M14.12,13.78c-0.16-0.11-0.37-0.08-0.49,0.06c-0.01,0.01-0.02,0.02-0.05,0.02c-0.03,0-0.04-0.01-0.05-0.02
		c-0.11-0.16-0.33-0.19-0.49-0.07s-0.19,0.33-0.07,0.49c0.15,0.19,0.37,0.3,0.6,0.3c0.24,0,0.46-0.1,0.6-0.3
		C14.3,14.11,14.26,13.89,14.12,13.78"/>
</g>
</svg>
