<svg version="1.1" id="Layer_1" xmlns="http://www.w3.org/2000/svg" xmlns:xlink="http://www.w3.org/1999/xlink" x="0px" y="0px"
	 width="100%" viewBox="0 0 1516 1518" enable-background="new 0 0 1516 1518" xml:space="preserve">
<path fill="#000000" opacity="1.000000" stroke="none" 
	d="
M1.000003,1386.000000 
	C1.000000,969.633911 1.000000,553.267883 1.395701,136.301392 
	C2.904327,122.425224 6.171203,109.660980 11.017593,97.287674 
	C17.924723,79.653107 27.881124,63.880478 40.632130,49.925262 
	C50.275028,39.371700 61.233936,30.365288 73.509819,22.945488 
	C88.341476,13.980927 104.065765,7.364883 121.105705,3.995274 
	C126.073639,3.012878 131.035400,1.999291 136.000000,1.000000 
	C551.032715,1.000000 966.065430,1.000000 1381.698730,1.395776 
	C1395.611572,2.752139 1408.338013,6.185425 1420.711304,11.021030 
	C1438.350830,17.914711 1454.153442,27.844490 1468.063110,40.643650 
	C1478.568970,50.310844 1487.611084,61.244907 1495.061523,73.503136 
	C1504.070557,88.325523 1510.642090,104.062271 1514.004883,121.105949 
	C1514.985107,126.074203 1516.000732,131.035507 1517.000000,136.000000 
	C1517.000000,552.366028 1517.000000,968.732117 1516.604248,1385.698730 
	C1514.950928,1402.728027 1510.327637,1418.275391 1503.368042,1433.098999 
	C1493.618774,1453.864746 1479.984375,1471.671387 1462.227783,1486.350342 
	C1448.160400,1497.979370 1432.603882,1506.879395 1415.447754,1512.940186 
	C1408.753662,1515.304810 1401.822876,1516.999878 1395.000000,1519.000000 
	C971.300598,1519.000000 547.601196,1519.000000 123.318054,1518.617310 
	C114.262192,1515.820435 105.594810,1513.933716 97.358009,1510.884155 
	C79.434914,1504.248047 63.604156,1493.985718 49.592510,1481.026611 
	C39.346703,1471.550415 30.538136,1460.891846 23.264059,1448.881348 
	C14.785400,1434.882324 8.067397,1420.281738 4.952741,1404.126587 
	C3.782344,1398.056030 2.325984,1392.040527 1.000003,1386.000000 
M337.500305,269.490662 
	C313.164032,269.490662 288.827759,269.490662 263.479034,269.490662 
	C393.152435,458.322937 521.984375,645.929871 650.890259,833.644531 
	C586.304321,908.764465 521.920654,983.653076 457.532532,1058.537842 
	C393.079254,1133.498535 328.621552,1208.455322 263.560760,1284.117432 
	C266.203735,1284.117432 267.822327,1284.118896 269.440887,1284.117188 
	C293.939148,1284.090088 318.438690,1283.922485 342.934784,1284.139648 
	C348.632782,1284.190063 352.663818,1282.342529 356.334595,1278.070435 
	C463.723969,1153.094116 571.186646,1028.180542 678.640564,903.259705 
	C682.263184,899.048218 685.916809,894.863281 689.768433,890.420959 
	C690.899231,892.008911 691.677795,893.068115 692.421204,894.151367 
	C711.612671,922.115417 730.796021,950.085083 749.989868,978.047424 
	C818.326172,1077.602783 886.682434,1177.144287 954.953247,1276.744507 
	C958.199280,1281.480103 961.795288,1284.378662 967.918396,1284.368042 
	C1062.580444,1284.205200 1157.242676,1284.178223 1251.904907,1284.100830 
	C1252.931519,1284.099976 1253.957886,1283.847046 1255.372803,1283.660767 
	C1254.509277,1282.379028 1253.967529,1281.561523 1253.412720,1280.753296 
	C1208.886108,1215.883911 1164.364746,1151.011230 1119.828857,1086.148193 
	C1081.697632,1030.612793 1043.546875,975.090698 1005.410278,919.558960 
	C979.427246,881.724426 953.459717,843.879150 927.473816,806.046509 
	C904.201843,772.164917 880.989380,738.241821 857.535767,704.486389 
	C854.693848,700.396118 854.765686,697.638245 858.150635,694.222778 
	C861.426147,690.917725 864.286438,687.201111 867.328674,683.664917 
	C979.334351,553.470581 1091.342163,423.278107 1203.339600,293.076721 
	C1209.814209,285.549652 1216.203857,277.949463 1223.391602,269.490631 
	C1220.537720,269.490631 1218.769531,269.486450 1217.001343,269.491272 
	C1192.170532,269.558868 1167.339233,269.733582 1142.509521,269.604584 
	C1137.697998,269.579590 1134.442261,271.250671 1131.373291,274.823669 
	C1043.873901,376.691895 956.300720,478.496979 868.737366,580.310364 
	C851.039490,600.888428 833.332458,621.458618 815.361328,642.344116 
	C813.877625,640.332581 812.554199,638.644348 811.342041,636.879639 
	C769.807922,576.414246 728.280029,515.944458 686.760254,455.469238 
	C645.823364,395.843170 604.844910,336.245575 564.053589,276.520050 
	C560.449097,271.242401 556.324097,269.172607 549.988403,269.192932 
	C479.492767,269.419189 408.996460,269.425232 337.500305,269.490662 
z"/>
<path fill="#FFFFFF" opacity="1.000000" stroke="none" 
	d="
M135.531342,1.000000 
	C131.035400,1.999291 126.073639,3.012878 121.105705,3.995274 
	C104.065765,7.364883 88.341476,13.980927 73.509819,22.945488 
	C61.233936,30.365288 50.275028,39.371700 40.632130,49.925262 
	C27.881124,63.880478 17.924723,79.653107 11.017593,97.287674 
	C6.171203,109.660980 2.904327,122.425224 1.395701,135.850479 
	C1.000000,91.072998 1.000000,46.146004 1.000000,1.000000 
	C45.687321,1.000000 90.375000,1.000000 135.531342,1.000000 
z"/>
<path fill="#FFFFFF" opacity="1.000000" stroke="none" 
	d="
M1517.000000,135.531342 
	C1516.000732,131.035507 1514.985107,126.074203 1514.004883,121.105949 
	C1510.642090,104.062271 1504.070557,88.325523 1495.061523,73.503136 
	C1487.611084,61.244907 1478.568970,50.310844 1468.063110,40.643650 
	C1454.153442,27.844490 1438.350830,17.914711 1420.711304,11.021030 
	C1408.338013,6.185425 1395.611572,2.752139 1382.149658,1.395776 
	C1426.927002,1.000000 1471.854004,1.000000 1517.000000,1.000000 
	C1517.000000,45.687321 1517.000000,90.375000 1517.000000,135.531342 
z"/>
<path fill="#FFFFFF" opacity="1.000000" stroke="none" 
	d="
M1.000003,1386.468628 
	C2.325984,1392.040527 3.782344,1398.056030 4.952741,1404.126587 
	C8.067397,1420.281738 14.785400,1434.882324 23.264059,1448.881348 
	C30.538136,1460.891846 39.346703,1471.550415 49.592510,1481.026611 
	C63.604156,1493.985718 79.434914,1504.248047 97.358009,1510.884155 
	C105.594810,1513.933716 114.262192,1515.820435 122.867149,1518.617310 
	C82.403198,1519.000000 41.806400,1519.000000 1.000000,1519.000000 
	C1.000000,1474.979248 1.000000,1430.958252 1.000003,1386.468628 
z"/>
<path fill="#FFFFFF" opacity="1.000000" stroke="none" 
	d="
M1395.468628,1519.000000 
	C1401.822876,1516.999878 1408.753662,1515.304810 1415.447754,1512.940186 
	C1432.603882,1506.879395 1448.160400,1497.979370 1462.227783,1486.350342 
	C1479.984375,1471.671387 1493.618774,1453.864746 1503.368042,1433.098999 
	C1510.327637,1418.275391 1514.950928,1402.728027 1516.604248,1386.149658 
	C1517.000000,1430.257202 1517.000000,1474.514282 1517.000000,1519.000000 
	C1476.645996,1519.000000 1436.291626,1519.000000 1395.468628,1519.000000 
z"/>
<path fill="#FEFEFE" opacity="1.000000" stroke="none" 
	d="
M338.000305,269.490662 
	C408.996460,269.425232 479.492767,269.419189 549.988403,269.192932 
	C556.324097,269.172607 560.449097,271.242401 564.053589,276.520050 
	C604.844910,336.245575 645.823364,395.843170 686.760254,455.469238 
	C728.280029,515.944458 769.807922,576.414246 811.342041,636.879639 
	C812.554199,638.644348 813.877625,640.332581 815.361328,642.344116 
	C833.332458,621.458618 851.039490,600.888428 868.737366,580.310364 
	C956.300720,478.496979 1043.873901,376.691895 1131.373291,274.823669 
	C1134.442261,271.250671 1137.697998,269.579590 1142.509521,269.604584 
	C1167.339233,269.733582 1192.170532,269.558868 1217.001343,269.491272 
	C1218.769531,269.486450 1220.537720,269.490631 1223.391602,269.490631 
	C1216.203857,277.949463 1209.814209,285.549652 1203.339600,293.076721 
	C1091.342163,423.278107 979.334351,553.470581 867.328674,683.664917 
	C864.286438,687.201111 861.426147,690.917725 858.150635,694.222778 
	C854.765686,697.638245 854.693848,700.396118 857.535767,704.486389 
	C880.989380,738.241821 904.201843,772.164917 927.473816,806.046509 
	C953.459717,843.879150 979.427246,881.724426 1005.410278,919.558960 
	C1043.546875,975.090698 1081.697632,1030.612793 1119.828857,1086.148193 
	C1164.364746,1151.011230 1208.886108,1215.883911 1253.412720,1280.753296 
	C1253.967529,1281.561523 1254.509277,1282.379028 1255.372803,1283.660767 
	C1253.957886,1283.847046 1252.931519,1284.099976 1251.904907,1284.100830 
	C1157.242676,1284.178223 1062.580444,1284.205200 967.918396,1284.368042 
	C961.795288,1284.378662 958.199280,1281.480103 954.953247,1276.744507 
	C886.682434,1177.144287 818.326172,1077.602783 749.989868,978.047424 
	C730.796021,950.085083 711.612671,922.115417 692.421204,894.151367 
	C691.677795,893.068115 690.899231,892.008911 689.768433,890.420959 
	C685.916809,894.863281 682.263184,899.048218 678.640564,903.259705 
	C571.186646,1028.180542 463.723969,1153.094116 356.334595,1278.070435 
	C352.663818,1282.342529 348.632782,1284.190063 342.934784,1284.139648 
	C318.438690,1283.922485 293.939148,1284.090088 269.440887,1284.117188 
	C267.822327,1284.118896 266.203735,1284.117432 263.560760,1284.117432 
	C328.621552,1208.455322 393.079254,1133.498535 457.532532,1058.537842 
	C521.920654,983.653076 586.304321,908.764465 650.890259,833.644531 
	C521.984375,645.929871 393.152435,458.322937 263.479034,269.490662 
	C288.827759,269.490662 313.164032,269.490662 338.000305,269.490662 
M1012.232056,1044.257446 
	C1001.777405,1029.271606 991.327698,1014.282410 980.867371,999.300537 
	C939.446533,939.975708 898.027832,880.649353 856.597900,821.330933 
	C824.790894,775.790344 793.004883,730.235046 761.144043,684.732056 
	C709.532837,611.022156 657.810913,537.389771 606.248657,463.645660 
	C578.052979,423.320251 550.037048,382.868591 522.088623,342.371307 
	C518.716919,337.485657 514.670959,335.232697 508.791138,335.256470 
	C469.635559,335.414734 430.479431,335.432922 391.323547,335.523407 
	C388.792480,335.529236 386.261902,335.758392 382.982086,335.920746 
	C393.313904,350.719208 402.995850,364.595032 412.686188,378.464966 
	C450.961578,433.249268 489.233154,488.036255 527.518005,542.813965 
	C617.013245,670.863342 706.532959,798.895569 796.008606,926.958557 
	C862.896240,1022.692017 929.761780,1118.441040 996.501587,1214.277588 
	C1000.028992,1219.342896 1003.947754,1221.441406 1010.126587,1221.405029 
	C1050.283447,1221.168335 1090.442139,1221.247437 1130.600220,1221.223511 
	C1131.998535,1221.222656 1133.396851,1221.223511 1135.881836,1221.223511 
	C1094.369751,1161.785767 1053.524780,1103.303467 1012.232056,1044.257446 
z"/>
<path fill="#010101" opacity="1.000000" stroke="none" 
	d="
M1012.455994,1044.539307 
	C1053.524780,1103.303467 1094.369751,1161.785767 1135.881836,1221.223511 
	C1133.396851,1221.223511 1131.998535,1221.222656 1130.600220,1221.223511 
	C1090.442139,1221.247437 1050.283447,1221.168335 1010.126587,1221.405029 
	C1003.947754,1221.441406 1000.028992,1219.342896 996.501587,1214.277588 
	C929.761780,1118.441040 862.896240,1022.692017 796.008606,926.958557 
	C706.532959,798.895569 617.013245,670.863342 527.518005,542.813965 
	C489.233154,488.036255 450.961578,433.249268 412.686188,378.464966 
	C402.995850,364.595032 393.313904,350.719208 382.982086,335.920746 
	C386.261902,335.758392 388.792480,335.529236 391.323547,335.523407 
	C430.479431,335.432922 469.635559,335.414734 508.791138,335.256470 
	C514.670959,335.232697 518.716919,337.485657 522.088623,342.371307 
	C550.037048,382.868591 578.052979,423.320251 606.248657,463.645660 
	C657.810913,537.389771 709.532837,611.022156 761.144043,684.732056 
	C793.004883,730.235046 824.790894,775.790344 856.597900,821.330933 
	C898.027832,880.649353 939.446533,939.975708 980.867371,999.300537 
	C991.327698,1014.282410 1001.777405,1029.271606 1012.455994,1044.539307 
z"/>
</svg>