<?xml version="1.0" encoding="utf-8"?>
<!-- Generator: Adobe Illustrator 24.1.1, SVG Export Plug-In . SVG Version: 6.00 Build 0)  -->
<svg version="1.0" id="Layer_1" xmlns="http://www.w3.org/2000/svg" xmlns:xlink="http://www.w3.org/1999/xlink" x="0px" y="0px"
	 viewBox="0 0 125.09 27.07" style="enable-background:new 0 0 125.09 27.07;" xml:space="preserve">
<style type="text/css">
	.st0{fill:#FFFFFF;}
	.st1{fill:#37B44A;}
	.st2{fill:none;stroke:#FFFFFF;stroke-width:0.25;stroke-miterlimit:10;}
</style>
<g>
	<g>
		<g>
			<path fill="#FFFFFF" class="st0" d="M0.37,5.59V5.36c0.65-0.05,0.72-0.1,0.72-0.77v-3.1c0-0.68-0.07-0.73-0.72-0.77V0.48h2.19v0.24
				C1.91,0.76,1.84,0.81,1.84,1.49v3.1c0,0.68,0.07,0.73,0.72,0.77v0.23H0.37z"/>
			<path fill="#FFFFFF" class="st0" d="M5.06,3.12C4.91,2.65,4.63,2.33,4.24,2.33c-0.29,0-0.49,0.21-0.49,0.52c0,0.32,0.3,0.51,0.66,0.65
				c0.61,0.24,1.02,0.53,1.02,1.08c0,0.74-0.68,1.1-1.34,1.1c-0.41,0-0.79-0.15-0.92-0.26c-0.05-0.1-0.13-0.66-0.14-0.97l0.22-0.03
				c0.15,0.53,0.51,0.99,0.98,0.99c0.29,0,0.55-0.22,0.55-0.53c0-0.32-0.21-0.5-0.62-0.68C3.69,3.99,3.14,3.72,3.14,3.1
				c0-0.56,0.48-1.03,1.23-1.03c0.34,0,0.56,0.07,0.72,0.14c0.07,0.17,0.17,0.66,0.18,0.84L5.06,3.12z"/>
			<path fill="#FFFFFF" class="st0" d="M7.5,5.57C7.35,5.65,7.23,5.68,7.16,5.68c-0.53,0-0.83-0.3-0.83-0.93V2.49H5.79L5.75,2.4l0.22-0.24h0.36
				V1.59l0.59-0.55l0.11,0.02v1.1h0.89C8,2.25,7.97,2.42,7.86,2.49H7.02v1.98c0,0.63,0.27,0.74,0.47,0.74
				c0.19,0,0.37-0.08,0.48-0.13l0.07,0.21L7.5,5.57z"/>
			<path fill="#FFFFFF" class="st0" d="M10.96,5.68c-0.15,0-0.32-0.07-0.41-0.16c-0.11-0.1-0.16-0.21-0.19-0.33c-0.32,0.2-0.7,0.49-0.92,0.49
				c-0.6,0-0.99-0.47-0.99-0.97c0-0.39,0.21-0.63,0.65-0.77c0.51-0.16,1.06-0.37,1.24-0.51V3.29c0-0.56-0.26-0.86-0.64-0.86
				c-0.14,0-0.26,0.05-0.34,0.14c-0.1,0.1-0.17,0.28-0.24,0.53C9.06,3.24,8.97,3.29,8.85,3.29c-0.16,0-0.37-0.16-0.37-0.35
				c0-0.12,0.1-0.21,0.26-0.32c0.23-0.17,0.77-0.47,1.22-0.55c0.25,0,0.48,0.06,0.67,0.2c0.3,0.25,0.38,0.57,0.38,0.99v1.41
				c0,0.35,0.14,0.47,0.28,0.47c0.09,0,0.2-0.04,0.28-0.09l0.08,0.21L10.96,5.68z M10.33,3.71c-0.16,0.08-0.48,0.23-0.65,0.31
				C9.37,4.15,9.19,4.3,9.19,4.59c0,0.41,0.31,0.6,0.55,0.6c0.19,0,0.45-0.12,0.58-0.26V3.71z"/>
			<path fill="#FFFFFF" class="st0" d="M14.17,5.59V5.38c0.46-0.05,0.51-0.11,0.51-0.67V3.43c0-0.55-0.22-0.88-0.71-0.88c-0.3,0-0.6,0.19-0.84,0.39
				v1.82c0,0.54,0.04,0.57,0.5,0.62v0.21h-1.77V5.38c0.53-0.06,0.58-0.1,0.58-0.63V3.17c0-0.51-0.05-0.54-0.47-0.62v-0.2
				c0.38-0.06,0.79-0.16,1.17-0.31v0.63c0.16-0.12,0.33-0.24,0.54-0.38c0.23-0.15,0.42-0.23,0.66-0.23c0.63,0,1.04,0.45,1.04,1.22
				v1.47c0,0.54,0.05,0.56,0.51,0.62v0.21H14.17z"/>
			<path fill="#FFFFFF" class="st0" d="M17.85,2.16c0.15-0.06,0.27-0.09,0.36-0.09c0.88,0,1.61,0.73,1.61,1.65c0,1.14-0.95,1.96-2.04,1.96
				c-0.34,0-0.76-0.08-1.22-0.28V1.06c0-0.49-0.03-0.55-0.53-0.6V0.27c0.38-0.05,0.9-0.17,1.22-0.27v2.41L17.85,2.16z M17.25,4.66
				c0,0.12,0.02,0.2,0.05,0.27c0.05,0.16,0.29,0.44,0.69,0.44c0.63,0,1.05-0.52,1.05-1.44c0-0.91-0.56-1.41-1.2-1.41
				c-0.21,0-0.44,0.06-0.59,0.13V4.66z"/>
			<path fill="#FFFFFF" class="st0" d="M24.24,5.4c-0.18,0.02-0.41,0.07-0.63,0.12c-0.22,0.06-0.44,0.11-0.6,0.16l-0.05-0.04V5.08
				c-0.18,0.13-0.34,0.27-0.56,0.4c-0.24,0.13-0.41,0.2-0.63,0.2c-0.56,0-1.01-0.33-1.01-1.18V3c0-0.43-0.06-0.47-0.27-0.52
				l-0.21-0.05V2.25c0.16-0.01,0.38-0.03,0.6-0.05c0.23-0.03,0.46-0.06,0.6-0.09c-0.02,0.24-0.02,0.62-0.02,1.14V4.3
				c0,0.66,0.33,0.86,0.69,0.86c0.28,0,0.56-0.11,0.82-0.35V3c0-0.43-0.07-0.48-0.33-0.52l-0.28-0.05V2.25
				c0.22-0.01,0.51-0.03,0.75-0.06c0.24-0.02,0.43-0.05,0.55-0.08v2.59c0,0.41,0.06,0.46,0.38,0.48l0.21,0.01V5.4z"/>
			<path fill="#FFFFFF" class="st0" d="M24.52,5.59V5.38c0.5-0.06,0.57-0.1,0.57-0.63V1.06c0-0.53-0.05-0.55-0.55-0.6V0.27
				c0.43-0.05,0.95-0.18,1.24-0.27v4.75c0,0.53,0.07,0.58,0.59,0.63v0.21H24.52z"/>
			<path fill="#FFFFFF" class="st0" d="M30.93,4.04h-1.87l0.11-0.45h1.88L30.93,4.04z"/>
			<path fill="#FFFFFF" class="st0" d="M38.26,1.75c-0.09-0.39-0.17-0.6-0.27-0.74c-0.13-0.18-0.27-0.24-0.89-0.24h-0.55V4.6
				c0,0.62,0.07,0.71,0.83,0.76v0.23h-2.38V5.36c0.74-0.05,0.81-0.13,0.81-0.76V0.77h-0.47c-0.7,0-0.86,0.08-0.97,0.24
				c-0.1,0.13-0.17,0.37-0.27,0.74h-0.24c0.04-0.51,0.07-1.03,0.09-1.47h0.17c0.12,0.2,0.22,0.2,0.46,0.2h3.26
				c0.22,0,0.29-0.05,0.42-0.2h0.17c0,0.36,0.04,0.97,0.08,1.44L38.26,1.75z"/>
			<path fill="#FFFFFF" class="st0" d="M42.14,5.4c-0.18,0.02-0.41,0.07-0.63,0.12c-0.22,0.06-0.44,0.11-0.6,0.16l-0.05-0.04V5.08
				c-0.18,0.13-0.34,0.27-0.56,0.4c-0.24,0.13-0.41,0.2-0.63,0.2c-0.56,0-1.01-0.33-1.01-1.18V3c0-0.43-0.06-0.47-0.27-0.52
				l-0.21-0.05V2.25c0.16-0.01,0.38-0.03,0.6-0.05c0.23-0.03,0.46-0.06,0.6-0.09c-0.02,0.24-0.02,0.62-0.02,1.14V4.3
				c0,0.66,0.33,0.86,0.69,0.86c0.28,0,0.56-0.11,0.82-0.35V3c0-0.43-0.07-0.48-0.33-0.52l-0.28-0.05V2.25
				c0.22-0.01,0.51-0.03,0.75-0.06c0.24-0.02,0.43-0.05,0.55-0.08v2.59c0,0.41,0.06,0.46,0.38,0.48l0.21,0.01V5.4z"/>
			<path fill="#FFFFFF" class="st0" d="M43.76,2.92c0.26-0.43,0.59-0.85,0.96-0.85c0.29,0,0.48,0.21,0.48,0.4c0,0.18-0.11,0.34-0.28,0.42
				c-0.1,0.04-0.17,0.02-0.21-0.02c-0.12-0.11-0.21-0.16-0.35-0.16c-0.2,0-0.45,0.23-0.62,0.65v1.4c0,0.52,0.04,0.56,0.66,0.61v0.21
				H42.5V5.38c0.48-0.05,0.55-0.1,0.55-0.61V3.14c0-0.5-0.04-0.53-0.49-0.6V2.36c0.4-0.06,0.77-0.16,1.18-0.32v0.88H43.76z"/>
			<path fill="#FFFFFF" class="st0" d="M48.24,5.6c-0.37-0.4-0.86-1.05-1.28-1.55c-0.1-0.12-0.16-0.16-0.23-0.16c-0.03-0.01-0.07,0-0.12,0.01v0.85
				c0,0.52,0.07,0.56,0.58,0.62v0.21h-1.85V5.38c0.53-0.06,0.59-0.11,0.59-0.62v-3.7c0-0.51-0.05-0.55-0.53-0.6V0.27
				c0.38-0.04,0.86-0.17,1.21-0.27v3.7c0.24-0.05,0.37-0.16,0.49-0.27c0.17-0.17,0.41-0.48,0.55-0.69c0.16-0.24,0.13-0.3-0.24-0.34
				V2.18l1.68-0.07v0.2c-0.54,0.09-0.75,0.17-1.05,0.46c-0.21,0.2-0.34,0.35-0.67,0.73c0.17,0.24,0.99,1.18,1.25,1.45
				c0.27,0.28,0.5,0.41,0.79,0.43v0.21L48.24,5.6z"/>
			<path fill="#FFFFFF" class="st0" d="M52.4,4.89c-0.52,0.65-1.09,0.79-1.35,0.79c-0.98,0-1.56-0.79-1.56-1.67c0-0.52,0.19-0.99,0.51-1.34
				c0.34-0.38,0.78-0.6,1.2-0.6h0c0.68,0,1.22,0.59,1.22,1.21c0,0.15-0.04,0.22-0.19,0.25c-0.14,0.02-1.14,0.1-2.07,0.13
				c0.02,1.02,0.61,1.44,1.17,1.44c0.33,0,0.63-0.12,0.92-0.39L52.4,4.89z M51.01,2.36c-0.34,0-0.69,0.31-0.8,0.96
				c0.42,0,0.85,0,1.29-0.02c0.14-0.01,0.19-0.05,0.19-0.15C51.7,2.74,51.44,2.36,51.01,2.36L51.01,2.36z"/>
			<path fill="#FFFFFF" class="st0" d="M56.56,2.37c-0.42,0.06-0.49,0.13-0.71,0.58c-0.2,0.4-0.46,1.06-1.01,2.33C54.3,6.53,54.13,6.98,54,7.42
				c-0.04,0.15-0.14,0.19-0.25,0.19c-0.23,0-0.48-0.19-0.48-0.4c0-0.13,0.07-0.2,0.2-0.29c0.27-0.16,0.43-0.34,0.62-0.69
				c0.14-0.26,0.21-0.41,0.24-0.5c0.05-0.12,0.03-0.23-0.02-0.35c-0.34-0.93-0.71-1.91-0.93-2.42c-0.17-0.41-0.26-0.51-0.69-0.57
				V2.16h1.69l0.01,0.21c-0.37,0.06-0.42,0.13-0.32,0.42l0.72,1.92c0.21-0.49,0.56-1.42,0.71-1.9c0.1-0.29,0.04-0.38-0.41-0.45V2.16
				h1.46V2.37z"/>
			<path fill="#FFFFFF" class="st0" d="M57.59,2.36c0.27,0,0.46,0.19,0.46,0.48c0,0.28-0.19,0.48-0.47,0.48c-0.27,0-0.46-0.2-0.46-0.48
				C57.13,2.56,57.32,2.36,57.59,2.36L57.59,2.36z M57.59,5.68c-0.27,0-0.46-0.18-0.46-0.47c0-0.27,0.19-0.48,0.47-0.48
				c0.27,0,0.47,0.2,0.47,0.48C58.07,5.49,57.87,5.68,57.59,5.68L57.59,5.68z"/>
			<path fill="#FFFFFF" class="st0" d="M68.11,3.8v1.78h-0.48V3.8H66V3.39h1.63V1.78h0.48v1.61h1.63V3.8H68.11z"/>
			<path fill="#FFFFFF" class="st0" d="M72.1,0.62c1.02,0,1.61,0.9,1.61,1.97c0,1.44-0.83,2.45-1.91,2.88c-0.41,0.16-0.94,0.24-1.17,0.25
				l-0.05-0.24c1.16-0.19,2.03-0.99,2.29-2.14L72.36,3.6c-0.18,0.1-0.33,0.13-0.48,0.13c-0.87,0-1.46-0.62-1.46-1.44
				c0-0.75,0.61-1.68,1.67-1.68H72.1z M71.97,0.89c-0.57,0-0.81,0.65-0.81,1.12c0,0.68,0.4,1.26,1.06,1.26c0.27,0,0.52-0.1,0.68-0.2
				c0.02-0.18,0.03-0.37,0.03-0.53c0-0.71-0.2-1.65-0.95-1.65H71.97z"/>
			<path fill="#FFFFFF" class="st0" d="M75.96,0.62c1.21,0,1.64,1.32,1.64,2.53c0,1.14-0.44,2.53-1.65,2.53c-1.22,0-1.66-1.29-1.66-2.52
				C74.29,2.01,74.73,0.62,75.96,0.62L75.96,0.62z M75.94,0.89c-0.7,0-0.88,1.16-0.88,2.25c0,1.08,0.21,2.27,0.89,2.27
				c0.69,0,0.87-1.17,0.87-2.27C76.83,2.04,76.64,0.89,75.94,0.89L75.94,0.89z"/>
			<path fill="#FFFFFF" class="st0" d="M81.05,2.74c0.33-0.12,0.72-0.25,0.93-0.25c1.02,0,1.55,0.67,1.55,1.32c0,0.48-0.23,0.91-0.73,1.32
				c-0.44,0.33-0.98,0.54-1.41,0.54c-0.36,0-0.7-0.16-0.83-0.27c-0.12-0.11-0.16-0.18-0.14-0.28c0-0.09,0.08-0.21,0.18-0.29
				c0.08-0.05,0.14-0.05,0.22,0.01C81,5,81.34,5.27,81.84,5.27c0.65,0,0.96-0.56,0.96-1.13c0-0.7-0.44-1.18-1.29-1.18
				c-0.34,0-0.65,0.1-0.84,0.16l0.32-2.41h2.34l0.05,0.06l-0.22,0.56h-1.9L81.05,2.74z"/>
			<path fill="#FFFFFF" class="st0" d="M86.25,2.64c0.71,0.12,1.12,0.62,1.11,1.2c0,1.3-1.59,1.84-2.11,1.84c-0.38,0-0.71-0.16-0.83-0.27
				c-0.12-0.1-0.15-0.19-0.13-0.3s0.12-0.22,0.2-0.27c0.06-0.05,0.13-0.05,0.2,0c0.19,0.17,0.55,0.43,1.01,0.43
				c0.54,0,0.92-0.4,0.92-1.17c0-0.72-0.56-1-1-1c-0.18,0-0.38,0.04-0.5,0.08l-0.05-0.24c0.71-0.23,1.25-0.52,1.25-1.08
				c0-0.49-0.34-0.73-0.75-0.73c-0.44,0-0.76,0.32-0.96,0.63l-0.17-0.17l0.36-0.5c0.23-0.25,0.59-0.46,1.03-0.46h0
				c0.74,0,1.21,0.45,1.21,1.04c0,0.22-0.08,0.39-0.24,0.55c-0.13,0.12-0.32,0.26-0.55,0.41V2.64z"/>
			<path fill="#FFFFFF" class="st0" d="M89.76,0.62c1.02,0,1.61,0.9,1.61,1.97c0,1.44-0.83,2.45-1.91,2.88c-0.41,0.16-0.94,0.24-1.17,0.25
				l-0.05-0.24c1.16-0.19,2.03-0.99,2.29-2.14L90.02,3.6c-0.18,0.1-0.33,0.13-0.48,0.13c-0.87,0-1.46-0.62-1.46-1.44
				c0-0.75,0.61-1.68,1.67-1.68H89.76z M89.63,0.89c-0.57,0-0.81,0.65-0.81,1.12c0,0.68,0.4,1.26,1.06,1.26
				c0.27,0,0.52-0.1,0.68-0.2c0.02-0.18,0.03-0.37,0.03-0.53c0-0.71-0.2-1.65-0.95-1.65H89.63z"/>
			<path fill="#FFFFFF" class="st0" d="M94.83,2.74c0.33-0.12,0.72-0.25,0.93-0.25c1.02,0,1.55,0.67,1.55,1.32c0,0.48-0.23,0.91-0.73,1.32
				c-0.43,0.33-0.98,0.54-1.41,0.54c-0.36,0-0.7-0.16-0.83-0.27c-0.12-0.11-0.16-0.18-0.15-0.28c0-0.09,0.08-0.21,0.18-0.29
				c0.07-0.05,0.14-0.05,0.22,0.01c0.18,0.16,0.52,0.43,1.01,0.43c0.65,0,0.96-0.56,0.96-1.13c0-0.7-0.43-1.18-1.29-1.18
				c-0.34,0-0.65,0.1-0.84,0.16l0.32-2.41h2.34l0.05,0.06l-0.22,0.56h-1.9L94.83,2.74z"/>
			<path fill="#FFFFFF" class="st0" d="M99.66,0.62c1.02,0,1.61,0.9,1.61,1.97c0,1.44-0.83,2.45-1.91,2.88c-0.41,0.16-0.94,0.24-1.17,0.25
				l-0.05-0.24c1.16-0.19,2.03-0.99,2.29-2.14L99.92,3.6c-0.18,0.1-0.33,0.13-0.48,0.13c-0.87,0-1.46-0.62-1.46-1.44
				c0-0.75,0.61-1.68,1.67-1.68H99.66z M99.53,0.89c-0.57,0-0.81,0.65-0.81,1.12c0,0.68,0.4,1.26,1.06,1.26
				c0.27,0,0.52-0.1,0.68-0.2c0.02-0.18,0.03-0.37,0.03-0.53c0-0.71-0.2-1.65-0.95-1.65H99.53z"/>
			<path fill="#FFFFFF" class="st0" d="M103.54,0.62c1.02,0,1.61,0.9,1.61,1.97c0,1.44-0.83,2.45-1.91,2.88c-0.41,0.16-0.94,0.24-1.17,0.25
				l-0.05-0.24c1.16-0.19,2.03-0.99,2.29-2.14L103.8,3.6c-0.18,0.1-0.33,0.13-0.48,0.13c-0.87,0-1.46-0.62-1.46-1.44
				c0-0.75,0.61-1.68,1.67-1.68H103.54z M103.41,0.89c-0.58,0-0.81,0.65-0.81,1.12c0,0.68,0.4,1.26,1.06,1.26
				c0.27,0,0.52-0.1,0.68-0.2c0.02-0.18,0.03-0.37,0.03-0.53c0-0.71-0.2-1.65-0.95-1.65H103.41z"/>
			<path fill="#FFFFFF" class="st0" d="M108.47,5.59V5.36c0.71-0.05,0.76-0.13,0.76-0.7V1.7c0-0.41-0.03-0.45-0.37-0.47l-0.42-0.02V1.03
				c0.53-0.09,1.02-0.24,1.5-0.41v4.04c0,0.57,0.05,0.65,0.77,0.7v0.23H108.47z"/>
			<path fill="#FFFFFF" class="st0" d="M115.06,4.5c-0.11,0.36-0.2,0.73-0.29,1.08h-3.03V5.4c0.44-0.43,0.9-0.87,1.29-1.32
				c0.49-0.57,0.99-1.2,0.99-1.87c0-0.64-0.34-1.03-0.92-1.03c-0.55,0-0.89,0.42-1.1,0.74l-0.19-0.17l0.48-0.67
				c0.26-0.26,0.63-0.47,1.09-0.47c0.73,0,1.37,0.51,1.37,1.34c0,0.67-0.29,1.12-1.06,1.9l-1.1,1.11h1.46
				c0.45,0,0.54-0.02,0.79-0.53L115.06,4.5z"/>
			<path fill="#FFFFFF" class="st0" d="M119.46,0.62c1.21,0,1.64,1.32,1.64,2.53c0,1.14-0.43,2.53-1.65,2.53c-1.22,0-1.66-1.29-1.66-2.52
				c0-1.14,0.44-2.54,1.66-2.54H119.46z M119.44,0.89c-0.7,0-0.88,1.16-0.88,2.25c0,1.08,0.21,2.27,0.89,2.27
				c0.69,0,0.86-1.17,0.86-2.27C120.32,2.04,120.13,0.89,119.44,0.89L119.44,0.89z"/>
			<path fill="#FFFFFF" class="st0" d="M123.07,2.64c0.18-0.08,0.34-0.13,0.49-0.13c0.88,0,1.46,0.63,1.46,1.45c0,0.93-0.7,1.72-1.67,1.72
				c-0.96,0-1.69-0.76-1.69-1.96c0-1.71,1.23-2.6,2.09-2.9c0.32-0.11,0.75-0.2,1.06-0.25l0.05,0.26c-0.26,0.05-0.58,0.15-0.87,0.27
				c-0.48,0.22-1.22,0.71-1.47,1.79L123.07,2.64z M123.22,2.96c-0.29,0-0.54,0.1-0.73,0.19c-0.04,0.15-0.05,0.36-0.05,0.54
				c0,0.95,0.41,1.7,1.03,1.7c0.61,0,0.8-0.65,0.8-1.16c0-0.66-0.35-1.27-1.05-1.27H123.22z"/>
			<path fill="#FFFFFF" class="st0" d="M3.54,16.18v-0.23c0.5-0.07,0.57-0.14,0.46-0.46c-0.11-0.31-0.26-0.7-0.43-1.15H1.85
				C1.71,14.7,1.6,15.01,1.5,15.32C1.33,15.8,1.4,15.89,2,15.96v0.23H0.23v-0.23c0.52-0.08,0.63-0.13,0.92-0.83l1.69-4.1l0.28-0.07
				c0.52,1.39,1.03,2.79,1.56,4.17c0.26,0.69,0.37,0.78,0.89,0.83v0.23H3.54z M2.75,12.03H2.73c-0.26,0.65-0.51,1.32-0.75,1.96h1.47
				L2.75,12.03z"/>
			<path fill="#FFFFFF" class="st0" d="M10.38,16.18v-0.21c0.45-0.05,0.54-0.09,0.54-0.64v-1.27c0-0.59-0.23-0.91-0.69-0.91
				c-0.26,0-0.55,0.15-0.85,0.39c0.01,0.1,0.02,0.19,0.02,0.33v1.51c0,0.49,0.08,0.54,0.51,0.59v0.21H8.16v-0.21
				c0.48-0.05,0.55-0.09,0.55-0.6v-1.33c0-0.59-0.22-0.89-0.68-0.89c-0.3,0-0.6,0.2-0.84,0.39v1.83c0,0.5,0.07,0.55,0.44,0.6v0.21
				H5.91v-0.21c0.52-0.05,0.59-0.1,0.59-0.61v-1.6c0-0.5-0.03-0.55-0.48-0.62v-0.2c0.34-0.05,0.79-0.16,1.17-0.31v0.64
				c0.17-0.11,0.34-0.26,0.58-0.4c0.21-0.13,0.41-0.21,0.66-0.21c0.38,0,0.73,0.24,0.89,0.64c0.24-0.17,0.46-0.32,0.66-0.45
				c0.17-0.11,0.38-0.2,0.6-0.2c0.63,0,1.04,0.44,1.04,1.22v1.48c0,0.52,0.05,0.54,0.52,0.6v0.21H10.38z"/>
			<path fill="#FFFFFF" class="st0" d="M16.98,16.18v-0.21c0.45-0.05,0.54-0.09,0.54-0.64v-1.27c0-0.59-0.23-0.91-0.69-0.91
				c-0.26,0-0.55,0.15-0.85,0.39c0.01,0.1,0.02,0.19,0.02,0.33v1.51c0,0.49,0.08,0.54,0.51,0.59v0.21h-1.76v-0.21
				c0.48-0.05,0.55-0.09,0.55-0.6v-1.33c0-0.59-0.22-0.89-0.68-0.89c-0.3,0-0.6,0.2-0.84,0.39v1.83c0,0.5,0.07,0.55,0.44,0.6v0.21
				h-1.72v-0.21c0.52-0.05,0.59-0.1,0.59-0.61v-1.6c0-0.5-0.03-0.55-0.48-0.62v-0.2c0.34-0.05,0.79-0.16,1.17-0.31v0.64
				c0.17-0.11,0.34-0.26,0.58-0.4c0.21-0.13,0.41-0.21,0.66-0.21c0.38,0,0.73,0.24,0.89,0.64c0.24-0.17,0.46-0.32,0.66-0.45
				c0.17-0.11,0.38-0.2,0.6-0.2c0.63,0,1.04,0.44,1.04,1.22v1.48c0,0.52,0.05,0.54,0.52,0.6v0.21H16.98z"/>
			<path fill="#FFFFFF" class="st0" d="M21.69,16.27c-0.15,0-0.32-0.07-0.41-0.16c-0.11-0.1-0.16-0.21-0.19-0.33c-0.32,0.2-0.7,0.49-0.92,0.49
				c-0.6,0-0.99-0.47-0.99-0.97c0-0.39,0.21-0.63,0.65-0.77c0.51-0.16,1.06-0.37,1.24-0.51v-0.14c0-0.56-0.26-0.86-0.64-0.86
				c-0.14,0-0.26,0.05-0.34,0.14c-0.1,0.1-0.17,0.28-0.24,0.53c-0.05,0.14-0.13,0.19-0.26,0.19c-0.16,0-0.37-0.16-0.37-0.35
				c0-0.12,0.1-0.21,0.26-0.32c0.23-0.17,0.77-0.47,1.22-0.55c0.25,0,0.48,0.06,0.67,0.2c0.3,0.25,0.38,0.57,0.38,0.99v1.41
				c0,0.35,0.14,0.47,0.28,0.47c0.09,0,0.2-0.04,0.28-0.09l0.08,0.21L21.69,16.27z M21.06,14.3c-0.16,0.08-0.48,0.23-0.65,0.31
				c-0.31,0.13-0.48,0.29-0.48,0.58c0,0.41,0.31,0.6,0.55,0.6c0.19,0,0.45-0.12,0.58-0.26V14.3z"/>
			<path fill="#FFFFFF" class="st0" d="M24.91,16.18v-0.21c0.46-0.05,0.51-0.11,0.51-0.67v-1.28c0-0.55-0.22-0.88-0.71-0.88
				c-0.3,0-0.6,0.19-0.84,0.39v1.82c0,0.54,0.04,0.57,0.5,0.62v0.21h-1.77v-0.21c0.53-0.06,0.57-0.1,0.57-0.63v-1.58
				c0-0.51-0.05-0.54-0.47-0.62v-0.2c0.38-0.06,0.79-0.16,1.17-0.31v0.63c0.16-0.12,0.33-0.24,0.54-0.38
				c0.23-0.15,0.42-0.23,0.66-0.23c0.63,0,1.04,0.45,1.04,1.22v1.47c0,0.54,0.05,0.56,0.51,0.62v0.21H24.91z"/>
			<path fill="#FFFFFF" class="st0" d="M31.26,14.64h-1.87l0.11-0.45h1.88L31.26,14.64z"/>
			<path fill="#FFFFFF" class="st0" d="M36.47,11.31c-0.62,0.04-0.69,0.1-0.69,0.77v2.83c0,1-0.15,1.58-0.73,2.09c-0.27,0.25-0.55,0.4-0.76,0.46
				l-0.1-0.24c0.45-0.21,0.68-0.56,0.77-1.03c0.07-0.4,0.09-0.86,0.09-1.51v-2.6c0-0.68-0.08-0.73-0.72-0.77v-0.24h2.15V11.31z"/>
			<path fill="#FFFFFF" class="st0" d="M38.58,12.66c1.02,0,1.77,0.79,1.77,1.74c0,1.27-0.97,1.87-1.78,1.87c-1.14,0-1.81-0.86-1.81-1.72
				C36.76,13.26,37.82,12.66,38.58,12.66L38.58,12.66z M38.48,12.93c-0.46,0-0.89,0.47-0.89,1.35c0,0.99,0.43,1.72,1.07,1.72
				c0.46,0,0.88-0.31,0.88-1.41c0-0.94-0.38-1.66-1.05-1.66H38.48z"/>
			<path fill="#FFFFFF" class="st0" d="M42.06,13.51c0.26-0.43,0.59-0.85,0.96-0.85c0.29,0,0.48,0.21,0.48,0.4c0,0.18-0.11,0.34-0.28,0.42
				c-0.1,0.04-0.17,0.02-0.21-0.02c-0.12-0.11-0.21-0.16-0.35-0.16c-0.2,0-0.45,0.23-0.62,0.65v1.4c0,0.52,0.04,0.56,0.66,0.61v0.21
				H40.8v-0.21c0.48-0.05,0.55-0.1,0.55-0.61v-1.63c0-0.5-0.04-0.53-0.49-0.6v-0.18c0.4-0.06,0.77-0.16,1.18-0.32v0.88H42.06z"/>
			<path fill="#FFFFFF" class="st0" d="M47.67,15.98c-0.17,0.03-0.79,0.13-1.3,0.3v-0.5l-0.47,0.28c-0.32,0.18-0.53,0.23-0.61,0.23
				c-0.67,0-1.52-0.57-1.52-1.67c0-1.09,0.98-1.94,2.09-1.94c0.11,0,0.32,0.02,0.52,0.09v-1.11c0-0.51-0.05-0.53-0.62-0.57v-0.2
				c0.45-0.05,0.99-0.17,1.31-0.27v4.66c0,0.43,0.06,0.47,0.38,0.5l0.23,0.02V15.98z M46.37,13.37c-0.19-0.27-0.5-0.41-0.81-0.41
				c-0.34,0-1,0.28-1,1.42c0,0.94,0.6,1.37,1.09,1.37c0.26,0,0.53-0.12,0.73-0.25V13.37z"/>
			<path fill="#FFFFFF" class="st0" d="M50.59,16.27c-0.15,0-0.32-0.07-0.41-0.16c-0.11-0.1-0.16-0.21-0.19-0.33c-0.32,0.2-0.7,0.49-0.92,0.49
				c-0.6,0-0.99-0.47-0.99-0.97c0-0.39,0.21-0.63,0.65-0.77c0.51-0.16,1.06-0.37,1.24-0.51v-0.14c0-0.56-0.26-0.86-0.64-0.86
				c-0.14,0-0.26,0.05-0.34,0.14c-0.1,0.1-0.17,0.28-0.24,0.53c-0.05,0.14-0.13,0.19-0.26,0.19c-0.16,0-0.37-0.16-0.37-0.35
				c0-0.12,0.1-0.21,0.26-0.32c0.23-0.17,0.77-0.47,1.22-0.55c0.25,0,0.48,0.06,0.67,0.2c0.3,0.25,0.38,0.57,0.38,0.99v1.41
				c0,0.35,0.14,0.47,0.28,0.47c0.09,0,0.2-0.04,0.28-0.09l0.08,0.21L50.59,16.27z M49.96,14.3c-0.16,0.08-0.48,0.23-0.65,0.31
				c-0.31,0.13-0.48,0.29-0.48,0.58c0,0.41,0.31,0.6,0.55,0.6c0.19,0,0.45-0.12,0.58-0.26V14.3z"/>
			<path fill="#FFFFFF" class="st0" d="M53.81,16.18v-0.21c0.46-0.05,0.51-0.11,0.51-0.67v-1.28c0-0.55-0.22-0.88-0.71-0.88
				c-0.3,0-0.6,0.19-0.84,0.39v1.82c0,0.54,0.04,0.57,0.5,0.62v0.21H51.5v-0.21c0.53-0.06,0.57-0.1,0.57-0.63v-1.58
				c0-0.51-0.05-0.54-0.47-0.62v-0.2c0.38-0.06,0.79-0.16,1.17-0.31v0.63c0.16-0.12,0.33-0.24,0.54-0.38
				c0.23-0.15,0.42-0.23,0.66-0.23c0.63,0,1.04,0.45,1.04,1.22v1.47c0,0.54,0.05,0.56,0.51,0.62v0.21H53.81z"/>
			<path fill="#FFFFFF" class="st0" d="M56.62,12.96c0.27,0,0.46,0.19,0.46,0.48c0,0.28-0.19,0.48-0.47,0.48c-0.27,0-0.46-0.2-0.46-0.48
				C56.15,13.15,56.35,12.96,56.62,12.96L56.62,12.96z M56.62,16.27c-0.27,0-0.46-0.18-0.46-0.47c0-0.27,0.19-0.48,0.47-0.48
				c0.27,0,0.47,0.2,0.47,0.48C57.09,16.09,56.9,16.27,56.62,16.27L56.62,16.27z"/>
			<path fill="#FFFFFF" class="st0" d="M70.26,14.4v1.78h-0.48V14.4h-1.63v-0.41h1.63v-1.61h0.48v1.61h1.63v0.41H70.26z"/>
			<path fill="#FFFFFF" class="st0" d="M74.25,11.21c1.02,0,1.61,0.9,1.61,1.97c0,1.44-0.83,2.45-1.91,2.88c-0.41,0.16-0.94,0.24-1.17,0.25
				l-0.05-0.24c1.16-0.19,2.03-0.99,2.29-2.14l-0.52,0.27c-0.18,0.1-0.33,0.13-0.48,0.13c-0.87,0-1.46-0.62-1.46-1.44
				c0-0.75,0.61-1.68,1.67-1.68H74.25z M74.12,11.49c-0.57,0-0.81,0.65-0.81,1.12c0,0.68,0.4,1.26,1.06,1.26
				c0.27,0,0.52-0.1,0.68-0.2c0.02-0.18,0.03-0.37,0.03-0.53c0-0.71-0.2-1.65-0.95-1.65H74.12z"/>
			<path fill="#FFFFFF" class="st0" d="M77.84,13.23c0.18-0.08,0.34-0.13,0.49-0.13c0.88,0,1.46,0.63,1.46,1.45c0,0.93-0.7,1.72-1.67,1.72
				c-0.96,0-1.69-0.76-1.69-1.96c0-1.71,1.23-2.6,2.09-2.9c0.32-0.11,0.75-0.2,1.06-0.25l0.05,0.26c-0.26,0.05-0.58,0.15-0.87,0.27
				c-0.48,0.22-1.22,0.71-1.47,1.79L77.84,13.23z M78,13.56c-0.29,0-0.54,0.1-0.73,0.19c-0.04,0.15-0.05,0.36-0.05,0.54
				c0,0.95,0.41,1.7,1.03,1.7c0.61,0,0.8-0.65,0.8-1.16c0-0.66-0.35-1.27-1.05-1.27H78z"/>
			<path fill="#FFFFFF" class="st0" d="M83.61,15.1c-0.11,0.36-0.2,0.73-0.29,1.08H80.3v-0.19c0.44-0.43,0.9-0.87,1.29-1.32
				c0.49-0.57,0.99-1.2,0.99-1.87c0-0.64-0.34-1.03-0.92-1.03c-0.55,0-0.89,0.42-1.1,0.74l-0.19-0.17l0.48-0.67
				c0.26-0.26,0.63-0.47,1.09-0.47c0.73,0,1.37,0.51,1.37,1.34c0,0.67-0.3,1.12-1.06,1.9l-1.1,1.11h1.46c0.45,0,0.54-0.02,0.79-0.53
				L83.61,15.1z"/>
			<path fill="#FFFFFF" class="st0" d="M89.76,11.4c-0.76,1.59-1.52,3.17-2.28,4.79l-0.63,0.09l-0.06-0.09c0.87-1.32,1.76-2.93,2.41-4.25h-1.74
				c-0.53,0-0.58,0.07-0.79,0.59h-0.24c0.08-0.48,0.12-0.88,0.16-1.21h3.11L89.76,11.4z"/>
			<path fill="#FFFFFF" class="st0" d="M91.96,11.21c0.77,0,1.32,0.53,1.32,1.17c0,0.23-0.08,0.46-0.24,0.63c-0.07,0.08-0.27,0.25-0.62,0.47
				c0.56,0.32,1.06,0.68,1.06,1.37c0,0.92-0.92,1.42-1.63,1.42c-0.89,0-1.56-0.49-1.56-1.32c0-0.36,0.19-0.57,0.36-0.74
				c0.13-0.12,0.44-0.33,0.7-0.48c-0.51-0.28-0.87-0.67-0.87-1.22c0-0.67,0.59-1.3,1.46-1.3H91.96z M91.95,16.01
				c0.46,0,0.84-0.35,0.84-0.94c0-0.58-0.54-0.89-1.19-1.21c-0.36,0.23-0.62,0.61-0.62,1.04C90.98,15.63,91.46,16.01,91.95,16.01
				L91.95,16.01z M91.86,11.48c-0.45,0-0.71,0.39-0.71,0.78c0,0.57,0.46,0.82,1.04,1.11c0.25-0.2,0.46-0.48,0.46-0.94
				C92.65,11.75,92.22,11.48,91.86,11.48L91.86,11.48z"/>
			<path fill="#FFFFFF" class="st0" d="M94.83,13.34c0.33-0.12,0.72-0.25,0.93-0.25c1.02,0,1.55,0.67,1.55,1.32c0,0.48-0.23,0.91-0.73,1.32
				c-0.43,0.33-0.98,0.54-1.41,0.54c-0.36,0-0.7-0.16-0.83-0.27c-0.12-0.11-0.16-0.18-0.15-0.28c0-0.09,0.08-0.21,0.18-0.29
				c0.07-0.05,0.14-0.05,0.22,0.01c0.18,0.16,0.52,0.43,1.01,0.43c0.65,0,0.96-0.56,0.96-1.13c0-0.7-0.43-1.18-1.29-1.18
				c-0.34,0-0.65,0.1-0.84,0.16l0.32-2.41h2.34l0.05,0.06l-0.22,0.56h-1.9L94.83,13.34z"/>
			<path fill="#FFFFFF" class="st0" d="M101.53,13.23c0.18-0.08,0.34-0.13,0.49-0.13c0.88,0,1.46,0.63,1.46,1.45c0,0.93-0.7,1.72-1.67,1.72
				c-0.96,0-1.69-0.76-1.69-1.96c0-1.71,1.23-2.6,2.09-2.9c0.32-0.11,0.75-0.2,1.06-0.25l0.05,0.26c-0.26,0.05-0.58,0.15-0.86,0.27
				c-0.48,0.22-1.22,0.71-1.47,1.79L101.53,13.23z M101.68,13.56c-0.29,0-0.54,0.1-0.72,0.19c-0.04,0.15-0.05,0.36-0.05,0.54
				c0,0.95,0.41,1.7,1.03,1.7c0.61,0,0.8-0.65,0.8-1.16c0-0.66-0.36-1.27-1.05-1.27H101.68z"/>
			<path fill="#FFFFFF" class="st0" d="M105.41,13.23c0.18-0.08,0.34-0.13,0.49-0.13c0.88,0,1.46,0.63,1.46,1.45c0,0.93-0.7,1.72-1.67,1.72
				c-0.96,0-1.69-0.76-1.69-1.96c0-1.71,1.23-2.6,2.09-2.9c0.32-0.11,0.75-0.2,1.06-0.25l0.05,0.26c-0.26,0.05-0.58,0.15-0.87,0.27
				c-0.48,0.22-1.22,0.71-1.47,1.79L105.41,13.23z M105.56,13.56c-0.29,0-0.54,0.1-0.73,0.19c-0.04,0.15-0.05,0.36-0.05,0.54
				c0,0.95,0.41,1.7,1.03,1.7c0.61,0,0.8-0.65,0.8-1.16c0-0.66-0.35-1.27-1.05-1.27H105.56z"/>
			<path fill="#FFFFFF" class="st0" d="M109.28,13.23c0.18-0.08,0.34-0.13,0.49-0.13c0.88,0,1.46,0.63,1.46,1.45c0,0.93-0.7,1.72-1.67,1.72
				c-0.96,0-1.69-0.76-1.69-1.96c0-1.71,1.23-2.6,2.09-2.9c0.32-0.11,0.75-0.2,1.06-0.25l0.05,0.26c-0.26,0.05-0.58,0.15-0.86,0.27
				c-0.48,0.22-1.22,0.71-1.47,1.79L109.28,13.23z M109.44,13.56c-0.29,0-0.54,0.1-0.72,0.19c-0.04,0.15-0.05,0.36-0.05,0.54
				c0,0.95,0.41,1.7,1.03,1.7c0.61,0,0.8-0.65,0.8-1.16c0-0.66-0.36-1.27-1.05-1.27H109.44z"/>
			<path fill="#FFFFFF" class="st0" d="M115.59,11.21c1.02,0,1.61,0.9,1.61,1.97c0,1.44-0.83,2.45-1.91,2.88c-0.41,0.16-0.94,0.24-1.17,0.25
				l-0.05-0.24c1.16-0.19,2.03-0.99,2.29-2.14l-0.52,0.27c-0.18,0.1-0.33,0.13-0.48,0.13c-0.87,0-1.46-0.62-1.46-1.44
				c0-0.75,0.61-1.68,1.67-1.68H115.59z M115.47,11.49c-0.58,0-0.81,0.65-0.81,1.12c0,0.68,0.4,1.26,1.06,1.26
				c0.27,0,0.52-0.1,0.68-0.2c0.02-0.18,0.03-0.37,0.03-0.53c0-0.71-0.2-1.65-0.95-1.65H115.47z"/>
			<path fill="#FFFFFF" class="st0" d="M119.19,13.23c0.18-0.08,0.34-0.13,0.49-0.13c0.88,0,1.46,0.63,1.46,1.45c0,0.93-0.7,1.72-1.67,1.72
				c-0.96,0-1.69-0.76-1.69-1.96c0-1.71,1.23-2.6,2.09-2.9c0.32-0.11,0.75-0.2,1.06-0.25l0.05,0.26c-0.26,0.05-0.58,0.15-0.86,0.27
				c-0.48,0.22-1.22,0.71-1.47,1.79L119.19,13.23z M119.34,13.56c-0.29,0-0.54,0.1-0.72,0.19c-0.04,0.15-0.05,0.36-0.05,0.54
				c0,0.95,0.41,1.7,1.03,1.7c0.61,0,0.8-0.65,0.8-1.16c0-0.66-0.36-1.27-1.05-1.27H119.34z"/>
			<path fill="#FFFFFF" class="st0" d="M123.07,13.23c0.18-0.08,0.34-0.13,0.49-0.13c0.88,0,1.46,0.63,1.46,1.45c0,0.93-0.7,1.72-1.67,1.72
				c-0.96,0-1.69-0.76-1.69-1.96c0-1.71,1.23-2.6,2.09-2.9c0.32-0.11,0.75-0.2,1.06-0.25l0.05,0.26c-0.26,0.05-0.58,0.15-0.87,0.27
				c-0.48,0.22-1.22,0.71-1.47,1.79L123.07,13.23z M123.22,13.56c-0.29,0-0.54,0.1-0.73,0.19c-0.04,0.15-0.05,0.36-0.05,0.54
				c0,0.95,0.41,1.7,1.03,1.7c0.61,0,0.8-0.65,0.8-1.16c0-0.66-0.35-1.27-1.05-1.27H123.22z"/>
			<path fill="#FFFFFF" class="st0" d="M14.89,25.51c-0.05,0.27-0.22,1.03-0.3,1.27h-3.71v-0.23c0.69-0.05,0.76-0.1,0.76-0.79v-3.08
				c0-0.68-0.05-0.73-0.72-0.77v-0.24h2.18v0.24c-0.63,0.04-0.71,0.09-0.71,0.77v3.06c0,0.43,0.04,0.58,0.19,0.66
				c0.16,0.09,0.43,0.1,0.75,0.1c0.42,0,0.71-0.05,0.89-0.25c0.15-0.15,0.3-0.41,0.43-0.78L14.89,25.51z"/>
			<path fill="#FFFFFF" class="st0" d="M17.18,23.26c1.02,0,1.77,0.79,1.77,1.74c0,1.27-0.97,1.87-1.78,1.87c-1.14,0-1.81-0.86-1.81-1.72
				C15.36,23.86,16.42,23.26,17.18,23.26L17.18,23.26z M17.08,23.52c-0.46,0-0.89,0.47-0.89,1.35c0,0.99,0.43,1.72,1.07,1.72
				c0.46,0,0.88-0.31,0.88-1.41c0-0.94-0.38-1.66-1.05-1.66H17.08z"/>
			<path fill="#FFFFFF" class="st0" d="M21.68,26.78v-0.21c0.46-0.05,0.51-0.11,0.51-0.67v-1.28c0-0.55-0.22-0.88-0.71-0.88
				c-0.3,0-0.6,0.19-0.84,0.39v1.82c0,0.54,0.04,0.57,0.5,0.62v0.21h-1.77v-0.21c0.53-0.06,0.57-0.1,0.57-0.63v-1.58
				c0-0.51-0.05-0.54-0.47-0.62v-0.2c0.38-0.06,0.79-0.16,1.17-0.31v0.63c0.16-0.12,0.33-0.24,0.54-0.38
				c0.23-0.15,0.42-0.23,0.66-0.23c0.63,0,1.04,0.45,1.04,1.22v1.47c0,0.54,0.05,0.56,0.51,0.62v0.21H21.68z"/>
			<path fill="#FFFFFF" class="st0" d="M27.74,26.57c-0.17,0.03-0.79,0.13-1.3,0.3v-0.5l-0.47,0.28c-0.32,0.18-0.53,0.23-0.61,0.23
				c-0.67,0-1.52-0.57-1.52-1.67c0-1.09,0.98-1.94,2.09-1.94c0.11,0,0.32,0.02,0.52,0.09v-1.11c0-0.51-0.05-0.53-0.62-0.57v-0.2
				c0.45-0.05,0.99-0.17,1.31-0.27v4.66c0,0.43,0.06,0.47,0.38,0.5l0.23,0.02V26.57z M26.44,23.97c-0.19-0.27-0.5-0.41-0.81-0.41
				c-0.34,0-1,0.28-1,1.42c0,0.94,0.6,1.37,1.09,1.37c0.26,0,0.53-0.12,0.72-0.25V23.97z"/>
			<path fill="#FFFFFF" class="st0" d="M29.92,23.26c1.02,0,1.77,0.79,1.77,1.74c0,1.27-0.97,1.87-1.78,1.87c-1.14,0-1.81-0.86-1.81-1.72
				C28.1,23.86,29.16,23.26,29.92,23.26L29.92,23.26z M29.82,23.52c-0.46,0-0.89,0.47-0.89,1.35c0,0.99,0.43,1.72,1.07,1.72
				c0.46,0,0.88-0.31,0.88-1.41c0-0.94-0.38-1.66-1.05-1.66H29.82z"/>
			<path fill="#FFFFFF" class="st0" d="M34.42,26.78v-0.21c0.46-0.05,0.51-0.11,0.51-0.67v-1.28c0-0.55-0.22-0.88-0.71-0.88
				c-0.3,0-0.6,0.19-0.84,0.39v1.82c0,0.54,0.04,0.57,0.5,0.62v0.21h-1.77v-0.21c0.53-0.06,0.57-0.1,0.57-0.63v-1.58
				c0-0.51-0.05-0.54-0.47-0.62v-0.2c0.38-0.06,0.79-0.16,1.17-0.31v0.63c0.16-0.12,0.33-0.24,0.54-0.38
				c0.23-0.15,0.42-0.23,0.66-0.23c0.63,0,1.04,0.45,1.04,1.22v1.47c0,0.54,0.05,0.56,0.51,0.62v0.21H34.42z"/>
			<path fill="#FFFFFF" class="st0" d="M40.77,25.23H38.9l0.11-0.45h1.88L40.77,25.23z"/>
			<path fill="#FFFFFF" class="st0" d="M49.34,21.9c-0.47,0.03-0.67,0.15-0.7,0.47c-0.02,0.22-0.05,0.54-0.05,1.25v0.62c0,0.93-0.15,1.61-0.62,2.09
				c-0.38,0.38-0.92,0.55-1.48,0.55c-0.49,0-0.96-0.11-1.32-0.38c-0.49-0.37-0.73-0.96-0.73-1.91v-1.87c0-0.73-0.07-0.76-0.7-0.82
				v-0.24h2.15v0.24c-0.63,0.04-0.7,0.09-0.7,0.82v1.71c0,1.29,0.54,2,1.52,2c1.14,0,1.53-0.91,1.53-2.22v-0.6
				c0-0.71-0.02-1.02-0.06-1.27c-0.04-0.3-0.23-0.41-0.78-0.45v-0.24h1.94V21.9z"/>
			<path fill="#FFFFFF" class="st0" d="M53.65,26.78c-0.6-0.67-1.23-1.41-1.96-2.26c-0.19-0.23-0.3-0.26-0.44-0.24v1.47c0,0.69,0.08,0.76,0.75,0.81
				v0.23h-2.17v-0.23c0.62-0.05,0.69-0.11,0.69-0.81v-3.03c0-0.71-0.07-0.76-0.71-0.81v-0.24h2.13v0.24
				c-0.62,0.04-0.69,0.1-0.69,0.81v1.35c0.19-0.04,0.34-0.16,0.59-0.38c0.47-0.45,0.99-0.96,1.32-1.35
				c0.24-0.28,0.23-0.37-0.15-0.42l-0.17-0.01v-0.24h1.98v0.24c-0.6,0.05-0.82,0.14-1.32,0.57c-0.34,0.3-0.89,0.84-1.4,1.34
				c0.6,0.74,1.46,1.69,1.9,2.16c0.41,0.44,0.59,0.53,0.97,0.57v0.23H53.65z"/>
			<path fill="#FFFFFF" class="st0" d="M55.94,23.55c0.27,0,0.46,0.19,0.46,0.48c0,0.28-0.19,0.48-0.47,0.48c-0.27,0-0.46-0.2-0.46-0.48
				C55.47,23.75,55.66,23.55,55.94,23.55L55.94,23.55z M55.93,26.87c-0.27,0-0.46-0.18-0.46-0.47c0-0.27,0.19-0.48,0.47-0.48
				c0.27,0,0.47,0.2,0.47,0.48C56.41,26.68,56.21,26.87,55.93,26.87L55.93,26.87z"/>
			<path fill="#FFFFFF" class="st0" d="M65.82,24.99v1.78h-0.48v-1.78h-1.63v-0.41h1.63v-1.61h0.48v1.61h1.63v0.41H65.82z"/>
			<path fill="#FFFFFF" class="st0" d="M70.92,25.39v0.53c0,0.53,0.04,0.57,0.68,0.63v0.22h-2.12v-0.22c0.71-0.06,0.75-0.12,0.75-0.64v-0.53h-2.08
				v-0.25c0.8-1.14,1.61-2.26,2.42-3.31h0.36V25h0.77v0.39H70.92z M70.23,22.74h-0.02c-0.49,0.65-1.01,1.4-1.55,2.26h1.57V22.74z"/>
			<path fill="#FFFFFF" class="st0" d="M74.94,25.39v0.53c0,0.53,0.04,0.57,0.68,0.63v0.22H73.5v-0.22c0.71-0.06,0.75-0.12,0.75-0.64v-0.53h-2.08
				v-0.25c0.8-1.14,1.61-2.26,2.42-3.31h0.36V25h0.77v0.39H74.94z M74.25,22.74h-0.02c-0.49,0.65-1.01,1.4-1.55,2.26h1.57V22.74z"/>
			<path fill="#FFFFFF" class="st0" d="M82.02,22c-0.76,1.59-1.52,3.17-2.28,4.79l-0.63,0.09l-0.06-0.09c0.87-1.32,1.76-2.93,2.41-4.25h-1.74
				c-0.53,0-0.58,0.07-0.79,0.59h-0.24c0.08-0.48,0.12-0.88,0.16-1.21h3.11L82.02,22z"/>
			<path fill="#FFFFFF" class="st0" d="M85.28,25.39v0.53c0,0.53,0.04,0.57,0.68,0.63v0.22h-2.12v-0.22c0.71-0.06,0.75-0.12,0.75-0.64v-0.53H82.5
				v-0.25c0.8-1.14,1.61-2.26,2.42-3.31h0.36V25h0.77v0.39H85.28z M84.58,22.74h-0.02c-0.49,0.65-1.01,1.4-1.55,2.26h1.57V22.74z"/>
			<path fill="#FFFFFF" class="st0" d="M88.38,21.81c0.77,0,1.32,0.53,1.32,1.17c0,0.23-0.08,0.46-0.24,0.63c-0.07,0.08-0.27,0.25-0.62,0.47
				c0.56,0.32,1.06,0.68,1.06,1.37c0,0.92-0.92,1.42-1.63,1.42c-0.89,0-1.56-0.49-1.56-1.32c0-0.36,0.19-0.57,0.36-0.74
				c0.13-0.12,0.44-0.33,0.7-0.48c-0.51-0.28-0.87-0.67-0.87-1.22c0-0.67,0.59-1.3,1.46-1.3H88.38z M88.37,26.6
				c0.46,0,0.84-0.35,0.84-0.94c0-0.58-0.54-0.89-1.19-1.21c-0.36,0.23-0.62,0.61-0.62,1.04C87.41,26.22,87.88,26.6,88.37,26.6
				L88.37,26.6z M88.28,22.08c-0.45,0-0.71,0.39-0.71,0.78c0,0.57,0.46,0.82,1.04,1.11c0.25-0.2,0.46-0.48,0.46-0.94
				C89.07,22.35,88.65,22.08,88.28,22.08L88.28,22.08z"/>
			<path fill="#FFFFFF" class="st0" d="M93.55,26.78v-0.23c0.71-0.05,0.76-0.13,0.76-0.7v-2.96c0-0.41-0.03-0.45-0.37-0.47l-0.42-0.02v-0.19
				c0.53-0.09,1.02-0.24,1.5-0.41v4.04c0,0.57,0.05,0.65,0.77,0.7v0.23H93.55z"/>
			<path fill="#FFFFFF" class="st0" d="M99.03,23.83c0.71,0.12,1.12,0.62,1.11,1.2c0,1.3-1.59,1.84-2.11,1.84c-0.38,0-0.71-0.16-0.83-0.27
				c-0.12-0.1-0.15-0.19-0.13-0.3s0.12-0.22,0.2-0.27c0.06-0.05,0.13-0.05,0.2,0c0.19,0.17,0.55,0.43,1.01,0.43
				c0.54,0,0.92-0.4,0.92-1.17c0-0.72-0.56-1-1-1c-0.18,0-0.38,0.04-0.5,0.08l-0.05-0.24c0.71-0.23,1.25-0.52,1.25-1.08
				c0-0.49-0.34-0.73-0.75-0.73c-0.44,0-0.76,0.32-0.96,0.63l-0.17-0.17l0.36-0.5c0.23-0.25,0.59-0.46,1.03-0.46h0
				c0.74,0,1.21,0.45,1.21,1.04c0,0.22-0.08,0.39-0.24,0.55c-0.13,0.12-0.32,0.26-0.55,0.41V23.83z"/>
			<path fill="#FFFFFF" class="st0" d="M102.4,23.83c0.18-0.08,0.34-0.13,0.49-0.13c0.88,0,1.46,0.63,1.46,1.45c0,0.93-0.7,1.72-1.67,1.72
				c-0.96,0-1.69-0.76-1.69-1.96c0-1.71,1.23-2.6,2.09-2.9c0.32-0.11,0.75-0.2,1.06-0.25l0.05,0.26c-0.26,0.05-0.58,0.15-0.87,0.27
				c-0.48,0.22-1.22,0.71-1.47,1.79L102.4,23.83z M102.55,24.15c-0.29,0-0.54,0.1-0.73,0.19c-0.04,0.15-0.05,0.36-0.05,0.54
				c0,0.95,0.41,1.7,1.03,1.7c0.61,0,0.8-0.65,0.8-1.16c0-0.66-0.35-1.27-1.05-1.27H102.55z"/>
			<path fill="#FFFFFF" class="st0" d="M110.61,25.69c-0.11,0.36-0.2,0.73-0.29,1.08h-3.03v-0.19c0.44-0.43,0.9-0.87,1.29-1.32
				c0.49-0.57,0.99-1.2,0.99-1.87c0-0.64-0.34-1.03-0.92-1.03c-0.55,0-0.89,0.42-1.1,0.74l-0.19-0.17l0.48-0.67
				c0.26-0.26,0.63-0.47,1.09-0.47c0.73,0,1.37,0.51,1.37,1.34c0,0.67-0.29,1.12-1.06,1.9l-1.1,1.11h1.46
				c0.45,0,0.54-0.02,0.79-0.53L110.61,25.69z"/>
			<path fill="#FFFFFF" class="st0" d="M113.07,21.81c0.77,0,1.32,0.53,1.32,1.17c0,0.23-0.08,0.46-0.24,0.63c-0.07,0.08-0.27,0.25-0.62,0.47
				c0.56,0.32,1.06,0.68,1.06,1.37c0,0.92-0.92,1.42-1.63,1.42c-0.89,0-1.56-0.49-1.56-1.32c0-0.36,0.19-0.57,0.36-0.74
				c0.13-0.12,0.44-0.33,0.7-0.48c-0.51-0.28-0.87-0.67-0.87-1.22c0-0.67,0.59-1.3,1.46-1.3H113.07z M113.06,26.6
				c0.46,0,0.84-0.35,0.84-0.94c0-0.58-0.54-0.89-1.19-1.21c-0.36,0.23-0.62,0.61-0.62,1.04C112.09,26.22,112.57,26.6,113.06,26.6
				L113.06,26.6z M112.97,22.08c-0.45,0-0.71,0.39-0.71,0.78c0,0.57,0.46,0.82,1.04,1.11c0.25-0.2,0.46-0.48,0.46-0.94
				C113.76,22.35,113.33,22.08,112.97,22.08L112.97,22.08z"/>
			<path fill="#FFFFFF" class="st0" d="M119.31,21.81c1.21,0,1.64,1.32,1.64,2.53c0,1.14-0.43,2.53-1.65,2.53c-1.22,0-1.66-1.29-1.66-2.52
				c0-1.14,0.44-2.54,1.66-2.54H119.31z M119.3,22.08c-0.7,0-0.88,1.16-0.88,2.25c0,1.08,0.21,2.27,0.89,2.27
				c0.69,0,0.86-1.17,0.86-2.27C120.18,23.23,119.99,22.08,119.3,22.08L119.3,22.08z"/>
			<path fill="#FFFFFF" class="st0" d="M124.96,25.69c-0.11,0.36-0.2,0.73-0.29,1.08h-3.03v-0.19c0.44-0.43,0.9-0.87,1.29-1.32
				c0.49-0.57,0.99-1.2,0.99-1.87c0-0.64-0.34-1.03-0.92-1.03c-0.55,0-0.89,0.42-1.1,0.74l-0.19-0.17l0.48-0.67
				c0.26-0.26,0.63-0.47,1.09-0.47c0.73,0,1.37,0.51,1.37,1.34c0,0.67-0.29,1.12-1.06,1.9l-1.1,1.11h1.46
				c0.45,0,0.54-0.02,0.79-0.53L124.96,25.69z"/>
		</g>
	</g>
	<path id="path2_3_" fill="#37B44A" class="st1" d="M0.2,26.74l0.53-1.58c-0.27-0.45-0.42-0.97-0.42-1.53c0-1.66,1.35-3.01,3.01-3.01
		s3.01,1.35,3.01,3.01s-1.35,3.01-3.01,3.01c-0.51,0-0.98-0.13-1.4-0.35L0.2,26.74z"/>
	<path id="path4_1_" fill="#FFFFFF" class="st0" d="M5.23,24.62c-0.14-0.26-0.65-0.56-0.65-0.56c-0.12-0.07-0.26-0.07-0.32,0.04
		c0,0-0.17,0.2-0.21,0.23c-0.19,0.13-0.37,0.13-0.55-0.05l-0.42-0.42l-0.42-0.42c-0.18-0.18-0.19-0.36-0.05-0.55
		c0.03-0.04,0.23-0.21,0.23-0.21c0.12-0.07,0.11-0.21,0.04-0.32c0,0-0.3-0.51-0.56-0.65c-0.11-0.06-0.25-0.04-0.34,0.05l-0.19,0.19
		c-0.59,0.59-0.3,1.25,0.29,1.84l0.54,0.54l0.54,0.54c0.59,0.59,1.25,0.88,1.84,0.29l0.19-0.19C5.27,24.87,5.29,24.74,5.23,24.62z"
		/>
	<path id="path2_2_" fill="none" stroke="#FFFFFF" stroke-width="0.25" stroke-miterlimit="10"  class="st2" d="M0.2,26.74l0.53-1.58c-0.27-0.45-0.42-0.97-0.42-1.53c0-1.66,1.35-3.01,3.01-3.01
		s3.01,1.35,3.01,3.01s-1.35,3.01-3.01,3.01c-0.51,0-0.98-0.13-1.4-0.35L0.2,26.74z"/>
</g>
</svg>
