<?xml version="1.0" encoding="UTF-8" standalone="no"?>
<svg
   xmlns:dc="http://purl.org/dc/elements/1.1/"
   xmlns:cc="http://creativecommons.org/ns#"
   xmlns:rdf="http://www.w3.org/1999/02/22-rdf-syntax-ns#"
   xmlns:svg="http://www.w3.org/2000/svg"
   xmlns="http://www.w3.org/2000/svg"
   xmlns:sodipodi="http://sodipodi.sourceforge.net/DTD/sodipodi-0.dtd"
   xmlns:inkscape="http://www.inkscape.org/namespaces/inkscape"
   version="1.1"
   id="Layer_1"
   x="0px"
   y="0px"
   viewBox="0 0 198.42 98.84"
   style="enable-background:new 0 0 198.42 98.84;"
   xml:space="preserve"
   sodipodi:docname="logoWhite.svg"
   inkscape:version="1.0.2-2 (e86c870879, 2021-01-15)"><metadata
   id="metadata130"><rdf:RDF><cc:Work
       rdf:about=""><dc:format>image/svg+xml</dc:format><dc:type
         rdf:resource="http://purl.org/dc/dcmitype/StillImage" /><dc:title></dc:title></cc:Work></rdf:RDF></metadata><defs
   id="defs128" /><sodipodi:namedview
   pagecolor="#ffffff"
   bordercolor="#666666"
   borderopacity="1"
   objecttolerance="10"
   gridtolerance="10"
   guidetolerance="10"
   inkscape:pageopacity="0"
   inkscape:pageshadow="2"
   inkscape:window-width="1920"
   inkscape:window-height="1017"
   id="namedview126"
   showgrid="false"
   inkscape:zoom="5.3825219"
   inkscape:cx="99.21"
   inkscape:cy="49.42"
   inkscape:window-x="-8"
   inkscape:window-y="-8"
   inkscape:window-maximized="1"
   inkscape:current-layer="Layer_1" />
<style
   type="text/css"
   id="style71">
	.st0{fill:#004B52;}
	.st1{ fill:#598A8F;}
	.st2{ fill:#99B7BA;}
</style>
<g
   id="g123">
	<g
   id="g87">
		<path
   class="st0"  fill="#004B52" 
   d="M35.63,98.84H21.82v-1.43c0.41-0.04,0.91-0.1,1.5-0.18c0.59-0.08,1-0.18,1.21-0.27    c0.44-0.18,0.76-0.43,0.95-0.75c0.19-0.32,0.29-0.72,0.29-1.21V75.63l-8.77,22.79h-2.26c-0.11-0.4-0.37-1.2-0.8-2.39    c-0.42-1.19-0.77-2.15-1.03-2.87L6.47,75.34v15.77c0,1.51,0.1,2.66,0.3,3.44c0.2,0.79,0.52,1.36,0.96,1.73    c0.3,0.26,0.84,0.5,1.61,0.73c0.77,0.23,1.31,0.37,1.63,0.4v1.43H0v-1.43c0.3-0.04,0.79-0.12,1.46-0.25s1.23-0.35,1.66-0.67    c0.48-0.34,0.8-0.92,0.97-1.73c0.17-0.81,0.25-1.96,0.25-3.46V78.47c0-0.78-0.1-1.43-0.29-1.95C3.87,76,3.58,75.59,3.2,75.29    c-0.48-0.38-0.97-0.62-1.47-0.73c-0.5-0.11-1.01-0.18-1.53-0.22v-1.43h11.74L18.22,90l5.29-13.87c0.18-0.51,0.35-1.12,0.52-1.83    c0.17-0.71,0.26-1.17,0.27-1.39H35.6v1.43c-0.38,0.03-0.78,0.07-1.2,0.15c-0.42,0.07-0.82,0.17-1.2,0.29    c-0.47,0.16-0.78,0.41-0.93,0.75c-0.15,0.34-0.22,0.72-0.22,1.13v18.37c0,0.44,0.07,0.81,0.22,1.11c0.15,0.3,0.46,0.56,0.93,0.78    c0.24,0.11,0.63,0.21,1.18,0.31c0.54,0.1,0.97,0.17,1.27,0.2V98.84z"
   id="path73" />
		<path
   class="st0"  fill="#004B52" 
   d="M59.37,79.53h-1.37c-0.35-0.98-0.95-1.98-1.8-2.99c-0.85-1.01-1.69-1.6-2.53-1.78    c-0.36-0.09-0.86-0.14-1.5-0.15c-0.64-0.02-1.17-0.03-1.59-0.03h-3.7v10h2.62c0.66,0,1.26-0.08,1.8-0.24    c0.54-0.16,1.03-0.46,1.47-0.91c0.28-0.28,0.55-0.77,0.84-1.48c0.28-0.71,0.46-1.32,0.55-1.85h1.37v10.82h-1.37    c-0.07-0.51-0.25-1.15-0.55-1.93c-0.29-0.77-0.57-1.31-0.84-1.6c-0.4-0.44-0.86-0.74-1.4-0.9c-0.54-0.16-1.16-0.25-1.87-0.25    h-2.62v7.47c0,0.78,0.06,1.4,0.17,1.85c0.11,0.46,0.33,0.81,0.64,1.05c0.3,0.23,0.71,0.38,1.23,0.46    c0.52,0.07,1.23,0.11,2.13,0.11c0.42,0,0.92-0.01,1.51-0.02c0.59-0.01,1.1-0.05,1.54-0.11c0.5-0.06,0.97-0.15,1.41-0.27    c0.44-0.12,0.76-0.3,0.98-0.53c0.58-0.6,1.22-1.51,1.94-2.73c0.72-1.23,1.19-2.14,1.42-2.75h1.31l-0.48,8.08H36.78v-1.43    c0.34-0.02,0.79-0.07,1.37-0.15c0.57-0.07,0.98-0.16,1.22-0.26c0.46-0.19,0.76-0.44,0.92-0.74c0.16-0.3,0.23-0.68,0.23-1.14V76.84    c0-0.44-0.07-0.8-0.2-1.09c-0.13-0.29-0.45-0.54-0.95-0.78c-0.31-0.15-0.75-0.28-1.31-0.4c-0.56-0.12-0.99-0.2-1.28-0.24v-1.43    h22.59V79.53z"
   id="path75" />
		<path
   class="st0"  fill="#004B52" 
   d="M91.08,98.84H81.3c-1.69-2.63-3.09-4.73-4.21-6.29c-1.12-1.56-2.51-3.36-4.17-5.41h-0.99v7.88    c0,0.44,0.08,0.81,0.24,1.11c0.16,0.3,0.47,0.56,0.93,0.77c0.23,0.1,0.58,0.2,1.07,0.3c0.48,0.1,0.9,0.17,1.25,0.21v1.43h-13.6    v-1.43c0.35-0.04,0.81-0.09,1.37-0.16c0.57-0.07,0.97-0.15,1.21-0.25c0.46-0.19,0.76-0.44,0.92-0.74s0.23-0.68,0.23-1.14V76.84    c0-0.44-0.07-0.8-0.2-1.1c-0.13-0.29-0.45-0.55-0.95-0.77c-0.38-0.16-0.83-0.29-1.36-0.4c-0.52-0.11-0.93-0.19-1.23-0.24v-1.43    h14.3c3.2,0,5.62,0.51,7.28,1.53c1.66,1.02,2.49,2.56,2.49,4.61c0,1.82-0.51,3.27-1.54,4.38c-1.02,1.1-2.58,1.96-4.68,2.59    c0.81,1.07,1.76,2.32,2.85,3.73c1.08,1.41,2.21,2.86,3.39,4.33c0.37,0.48,0.88,1.06,1.52,1.75c0.64,0.69,1.21,1.11,1.7,1.27    c0.28,0.09,0.63,0.16,1.05,0.22c0.42,0.06,0.73,0.1,0.91,0.11V98.84z M78.85,79.56c0-1.73-0.48-2.99-1.43-3.79    c-0.95-0.8-2.31-1.2-4.07-1.2h-1.42v10.86h1.37c1.76,0,3.13-0.47,4.1-1.41C78.37,83.08,78.85,81.6,78.85,79.56z"
   id="path77" />
		<path
   class="st0"  fill="#004B52" 
   d="M103.04,98.84c-1.87,0-3.62-0.3-5.24-0.9c-1.63-0.6-3.05-1.47-4.26-2.61c-1.19-1.12-2.12-2.5-2.8-4.14    c-0.68-1.64-1.02-3.45-1.02-5.42c0-1.96,0.34-3.77,1.03-5.44c0.69-1.67,1.66-3.11,2.9-4.34c1.22-1.2,2.69-2.13,4.4-2.79    c1.71-0.66,3.54-0.99,5.5-0.99c1.41,0,2.7,0.17,3.86,0.52c1.16,0.34,2.14,0.73,2.95,1.16l1.11-0.98h1.56l0.16,9.21h-1.58    c-0.9-2.82-1.97-4.88-3.23-6.2c-1.26-1.32-2.79-1.98-4.59-1.98c-2.25,0-3.96,0.98-5.13,2.95c-1.17,1.97-1.76,4.72-1.76,8.27    c0,2.01,0.2,3.72,0.6,5.14c0.4,1.42,0.92,2.56,1.57,3.43c0.69,0.9,1.51,1.56,2.46,1.99s1.99,0.63,3.14,0.63    c1.67,0,3.17-0.45,4.48-1.35c1.31-0.9,2.5-2.26,3.58-4.09l1.54,0.92c-0.52,1.04-1.1,1.98-1.76,2.8c-0.66,0.82-1.42,1.53-2.28,2.13    c-0.95,0.65-1.99,1.16-3.13,1.53C105.94,98.66,104.59,98.84,103.04,98.84z"
   id="path79" />
		<path
   class="st0"  fill="#004B52" 
   d="M143.86,74.3c-0.35,0.04-0.85,0.12-1.5,0.24c-0.65,0.12-1.2,0.34-1.64,0.65c-0.46,0.3-0.78,0.83-0.96,1.6    c-0.19,0.77-0.28,1.93-0.28,3.47v9.39c0,2.76-0.95,4.99-2.84,6.67c-1.89,1.68-4.39,2.53-7.51,2.53c-3.63,0-6.44-0.81-8.42-2.44    c-1.99-1.62-2.98-3.89-2.98-6.79V76.7c0-0.41-0.08-0.77-0.24-1.07c-0.16-0.3-0.47-0.56-0.93-0.8c-0.31-0.15-0.69-0.28-1.15-0.37    c-0.45-0.09-0.83-0.16-1.11-0.2v-1.35h13.36v1.35c-0.38,0.02-0.77,0.07-1.17,0.13c-0.4,0.07-0.8,0.16-1.2,0.29    c-0.46,0.14-0.76,0.38-0.92,0.71c-0.16,0.33-0.23,0.71-0.23,1.12v12.74c0,2.5,0.56,4.32,1.67,5.46c1.11,1.14,2.73,1.71,4.84,1.71    c2.08,0,3.71-0.63,4.9-1.88c1.18-1.26,1.78-3.11,1.78-5.55v-8.56c0-1.52-0.1-2.65-0.31-3.41c-0.21-0.75-0.53-1.3-0.96-1.63    c-0.31-0.26-0.85-0.5-1.63-0.71c-0.77-0.21-1.31-0.34-1.63-0.39v-1.39h11.06V74.3z"
   id="path81" />
		<path
   class="st0"  fill="#004B52" 
   d="M172.95,98.84h-9.78c-1.69-2.63-3.09-4.73-4.21-6.29c-1.12-1.56-2.51-3.36-4.17-5.41h-0.98v7.88    c0,0.44,0.08,0.81,0.24,1.11c0.16,0.3,0.47,0.56,0.93,0.77c0.23,0.1,0.58,0.2,1.07,0.3c0.49,0.1,0.9,0.17,1.25,0.21v1.43h-13.6    v-1.43c0.35-0.04,0.81-0.09,1.37-0.16c0.57-0.07,0.97-0.15,1.21-0.25c0.46-0.19,0.76-0.44,0.92-0.74s0.23-0.68,0.23-1.14V76.84    c0-0.44-0.07-0.8-0.2-1.1c-0.13-0.29-0.45-0.55-0.95-0.77c-0.38-0.16-0.83-0.29-1.36-0.4c-0.52-0.11-0.93-0.19-1.23-0.24v-1.43    h14.3c3.2,0,5.62,0.51,7.28,1.53c1.66,1.02,2.49,2.56,2.49,4.61c0,1.82-0.51,3.27-1.54,4.38c-1.02,1.1-2.58,1.96-4.68,2.59    c0.81,1.07,1.76,2.32,2.85,3.73c1.08,1.41,2.21,2.86,3.39,4.33c0.37,0.48,0.88,1.06,1.52,1.75c0.64,0.69,1.21,1.11,1.7,1.27    c0.28,0.09,0.63,0.16,1.05,0.22c0.43,0.06,0.73,0.1,0.91,0.11V98.84z M160.71,79.56c0-1.73-0.48-2.99-1.43-3.79    c-0.95-0.8-2.31-1.2-4.07-1.2h-1.42v10.86h1.36c1.76,0,3.12-0.47,4.09-1.41C160.23,83.08,160.71,81.6,160.71,79.56z"
   id="path83" />
		<path
   class="st0"  fill="#004B52" 
   d="M198.42,74.34c-0.43,0.05-0.83,0.13-1.18,0.24c-0.36,0.11-0.7,0.26-1.02,0.46c-0.51,0.29-0.97,0.67-1.37,1.12    c-0.4,0.46-0.79,0.97-1.17,1.53c-0.78,1.16-1.59,2.42-2.45,3.77c-0.85,1.36-1.78,2.85-2.79,4.49c-0.66,1.04-1.06,1.83-1.21,2.38    c-0.15,0.56-0.22,1.51-0.22,2.88v3.67c0,0.44,0.08,0.82,0.24,1.15s0.47,0.6,0.93,0.8c0.2,0.09,0.63,0.2,1.29,0.34    s1.14,0.22,1.46,0.25v1.43h-14.21v-1.43c0.34-0.02,0.82-0.07,1.45-0.15c0.63-0.07,1.07-0.16,1.32-0.26    c0.44-0.19,0.75-0.45,0.91-0.78c0.16-0.32,0.24-0.72,0.24-1.18v-4.57c0-0.4-0.01-0.76-0.02-1.06c-0.01-0.3-0.05-0.56-0.13-0.77    c-0.08-0.23-0.23-0.53-0.43-0.89c-0.2-0.36-0.47-0.83-0.79-1.4c-0.92-1.64-1.81-3.2-2.68-4.68c-0.86-1.47-1.68-2.86-2.46-4.15    c-0.41-0.67-0.82-1.21-1.23-1.62c-0.41-0.41-0.83-0.74-1.27-1c-0.32-0.18-0.72-0.32-1.18-0.42c-0.46-0.1-0.88-0.16-1.25-0.18    v-1.43h14.6v1.43c-1.34,0.04-2.24,0.13-2.7,0.28c-0.47,0.15-0.7,0.36-0.7,0.63c0,0.13,0.09,0.4,0.26,0.8    c0.17,0.4,0.48,1.02,0.92,1.86c0.41,0.79,1,1.88,1.79,3.27c0.78,1.39,1.73,3.01,2.83,4.87c2.27-3.66,3.83-6.22,4.68-7.68    c0.85-1.45,1.27-2.35,1.27-2.68c0-0.41-0.25-0.73-0.75-0.95c-0.5-0.22-1.31-0.36-2.43-0.42v-1.43h9.45V74.34z"
   id="path85" />
	</g>
	<g
   id="g121">
		<path
   class="st0"  fill="#004B52" 
   d="M142.68,20.81c-35.15,13.36-43.44,45.83-43.44,45.83c1.6-40.67,34.15-58.01,49.66-63.99l0,0l0.01,0    C151.57,1.62,157,0,157,0c2.69,27.85,18.22,52.76,40.73,66.94c0.44,0.27,0.7,0.42,0.7,0.42c-0.69-0.1-1.34-0.24-2.02-0.36l0,0    c-24.26-2.66-40.72-20.32-47.92-43.29C147.72,21.27,145.08,19.9,142.68,20.81z"
   id="path89" />
		<path
   class="st1"  fill="#598A8F" 
   d="M143.91,25.73c5.92,33.89,38.61,41.63,38.61,41.63c-25.27,0-38.51-17.39-42.97-24.74    c-1.16-1.9-3.48-2.79-5.59-2.06c-17.15,5.91-29.93,19.96-29.93,19.96C115,35.56,143.91,25.73,143.91,25.73z"
   id="path91" />
		<g
   id="g101">
			<path
   class="st2"  fill="#99B7BA" 
   d="M110.2,57.35c-1.52,1.35-2.71,2.49-3.51,3.29c2.25,3.34,7.12,7.59,17.37,6.57     C124.06,67.2,113.65,66.14,110.2,57.35z"
   id="path93" />
			<path
   class="st2"  fill="#99B7BA" 
   d="M126.58,45.95c-2.76,1.44-5.34,3.02-7.67,4.61C122,57,131.06,69.53,152.94,67.04     C152.94,67.04,132.36,64.69,126.58,45.95z"
   id="path95" />
			<path
   class="st2"  fill="#99B7BA" 
   d="M117.14,51.8c-1.99,1.43-3.77,2.84-5.31,4.14c2.39,4.73,8.91,12.91,24.84,11.19     C136.67,67.13,121.08,65.43,117.14,51.8z"
   id="path97" />
			<path
   class="st2"  fill="#99B7BA" 
   d="M160.99,64.69c-7.12-2.85-17.04-8.62-23.01-19.73c-0.95-1.78-3.04-2.66-4.93-1.94     c-1.75,0.67-3.44,1.42-5.08,2.22c3.53,6.57,15.04,22.95,39.98,22.07C165.47,66.59,163.15,65.7,160.99,64.69z"
   id="path99" />
		</g>
		<path
   class="st0"  fill="#004B52" 
   d="M55.74,20.81C90.9,34.17,99.18,66.64,99.18,66.64C97.58,25.97,65.03,8.63,49.52,2.65l0,0l-0.01,0    C46.85,1.62,41.42,0,41.42,0C38.74,27.85,23.2,52.76,0.7,66.94C0.26,67.21,0,67.36,0,67.36c0.69-0.1,1.34-0.24,2.02-0.36l0,0    c24.26-2.66,40.72-20.32,47.92-43.29C50.7,21.27,53.35,19.9,55.74,20.81z"
   id="path103" />
		<path
   class="st1"  fill="#598A8F" 
   d="M54.51,25.73C48.6,59.62,15.9,67.36,15.9,67.36c25.27,0,38.51-17.39,42.97-24.74    c1.16-1.9,3.48-2.79,5.59-2.06c17.15,5.91,29.93,19.96,29.93,19.96C83.42,35.56,54.51,25.73,54.51,25.73z"
   id="path105" />
		<g
   id="g115">
			<path
   class="st2"  fill="#99B7BA" 
   d="M88.22,57.35c1.52,1.35,2.71,2.49,3.51,3.29c-2.25,3.34-7.12,7.59-17.37,6.57     C74.36,67.2,84.77,66.14,88.22,57.35z"
   id="path107" />
			<path
   class="st2"  fill="#99B7BA" 
   d="M71.85,45.95c2.76,1.44,5.34,3.02,7.67,4.61C76.43,57,67.36,69.53,45.48,67.04     C45.48,67.04,66.07,64.69,71.85,45.95z"
   id="path109" />
			<path
   class="st2"  fill="#99B7BA" 
   d="M81.28,51.8c1.99,1.43,3.77,2.84,5.31,4.14c-2.39,4.73-8.91,12.91-24.84,11.19     C61.75,67.13,77.35,65.43,81.28,51.8z"
   id="path111" />
			<path
   class="st2"  fill="#99B7BA" 
   d="M37.44,64.69c7.12-2.85,17.04-8.62,23.01-19.73c0.95-1.78,3.04-2.66,4.93-1.94     c1.75,0.67,3.44,1.42,5.08,2.22c-3.53,6.57-15.04,22.95-39.98,22.07C32.96,66.59,35.27,65.7,37.44,64.69z"
   id="path113" />
		</g>
		<g
   id="g119">
			<path
   class="st1"  fill="#598A8F" 
   d="M125.36,12.58c-4.18-3.01-8.37-5.35-12.75-6.93c-2.21-0.73-4.4-1.42-6.66-1.75     c-2.24-0.41-4.5-0.63-6.77-0.59C96.9,3.26,94.64,3.5,92.4,3.9c-2.26,0.33-4.45,1.02-6.66,1.75C81.36,7.23,77.17,9.58,73,12.59     l-0.28-0.23c3.18-3.91,7.23-7.13,11.78-9.33c4.55-2.21,9.61-3.37,14.68-3.4c5.07,0.03,10.13,1.19,14.68,3.4     c4.56,2.2,8.61,5.41,11.79,9.32L125.36,12.58z"
   id="path117" />
		</g>
	</g>
</g>
</svg>
