<?xml version="1.0" encoding="utf-8"?>
<!-- Generator: Adobe Illustrator 24.1.1, SVG Export Plug-In . SVG Version: 6.00 Build 0)  -->
<svg version="1.0" id="Layer_1" xmlns="http://www.w3.org/2000/svg" xmlns:xlink="http://www.w3.org/1999/xlink" x="0px" y="0px"
	 viewBox="0 0 104.3 16.82" style="enable-background:new 0 0 104.3 16.82;" xml:space="preserve">
<style type="text/css">
	.st0{fill:#FFFFFF;}
</style>
<g>
	<path fill="#FFFFFF" class="st0" d="M5.87,11.58c-0.4,0.06-0.47,0.16-0.64,0.58c-0.24,0.62-0.6,1.67-0.98,2.73H4.02c-0.33-0.84-0.67-1.62-0.98-2.4
		c-0.31,0.78-0.63,1.56-0.94,2.4H1.84c-0.29-0.93-0.6-1.85-0.93-2.79c-0.14-0.4-0.21-0.46-0.59-0.51v-0.21h1.7v0.21
		c-0.48,0.08-0.52,0.13-0.4,0.48c0.18,0.58,0.38,1.18,0.57,1.75h0.02c0.3-0.73,0.6-1.53,0.92-2.4h0.22c0.3,0.79,0.63,1.61,0.96,2.43
		h0.02c0.16-0.49,0.39-1.2,0.53-1.75c0.1-0.38,0.05-0.44-0.46-0.51v-0.21h1.46V11.58z"/>
	<path fill="#FFFFFF" class="st0" d="M11.48,11.58c-0.4,0.06-0.47,0.16-0.64,0.58c-0.24,0.62-0.6,1.67-0.98,2.73H9.62
		c-0.33-0.84-0.67-1.62-0.98-2.4c-0.31,0.78-0.63,1.56-0.94,2.4H7.45c-0.29-0.93-0.6-1.85-0.93-2.79c-0.14-0.4-0.21-0.46-0.59-0.51
		v-0.21h1.7v0.21c-0.48,0.08-0.52,0.13-0.4,0.48c0.18,0.58,0.38,1.18,0.57,1.75h0.02c0.3-0.73,0.6-1.53,0.92-2.4h0.22
		c0.3,0.79,0.63,1.61,0.96,2.43h0.02c0.16-0.49,0.39-1.2,0.53-1.75c0.1-0.38,0.05-0.44-0.46-0.51v-0.21h1.46V11.58z"/>
	<path fill="#FFFFFF" class="st0" d="M17.08,11.58c-0.4,0.06-0.47,0.16-0.64,0.58c-0.24,0.62-0.6,1.67-0.98,2.73h-0.24
		c-0.33-0.84-0.67-1.62-0.98-2.4c-0.31,0.78-0.63,1.56-0.94,2.4h-0.25c-0.29-0.93-0.6-1.85-0.93-2.79c-0.14-0.4-0.21-0.46-0.59-0.51
		v-0.21h1.7v0.21c-0.48,0.08-0.52,0.13-0.4,0.48c0.18,0.58,0.38,1.18,0.57,1.75h0.02c0.3-0.73,0.6-1.53,0.92-2.4h0.22
		c0.3,0.79,0.63,1.61,0.96,2.43h0.02c0.16-0.49,0.39-1.2,0.53-1.75c0.1-0.38,0.05-0.44-0.46-0.51v-0.21h1.46V11.58z"/>
	<path fill="#FFFFFF" class="st0" d="M17.3,14.89c-0.26,0-0.46-0.18-0.46-0.48c0-0.26,0.2-0.47,0.47-0.47c0.28,0,0.47,0.2,0.47,0.47
		C17.78,14.71,17.58,14.89,17.3,14.89L17.3,14.89z"/>
	<path fill="#FFFFFF" class="st0" d="M22.93,14.8v-0.21c0.45-0.05,0.54-0.09,0.54-0.64v-1.27c0-0.59-0.23-0.91-0.69-0.91
		c-0.26,0-0.55,0.15-0.85,0.39c0.01,0.1,0.02,0.19,0.02,0.33V14c0,0.49,0.08,0.54,0.51,0.59v0.21H20.7v-0.21
		c0.48-0.05,0.55-0.09,0.55-0.6v-1.33c0-0.59-0.22-0.89-0.68-0.89c-0.3,0-0.6,0.2-0.84,0.39v1.83c0,0.51,0.07,0.55,0.44,0.6v0.21
		h-1.72v-0.21c0.52-0.05,0.59-0.1,0.59-0.61v-1.6c0-0.5-0.03-0.55-0.48-0.62v-0.2c0.34-0.05,0.79-0.16,1.17-0.31v0.64
		c0.17-0.11,0.34-0.26,0.59-0.4c0.21-0.13,0.41-0.21,0.66-0.21c0.38,0,0.72,0.24,0.89,0.64c0.24-0.17,0.46-0.32,0.66-0.45
		c0.17-0.11,0.38-0.2,0.6-0.2c0.63,0,1.04,0.44,1.04,1.22v1.48c0,0.52,0.05,0.54,0.52,0.6v0.21H22.93z"/>
	<path fill="#FFFFFF" class="st0" d="M28.03,14.1c-0.52,0.65-1.09,0.79-1.35,0.79c-0.98,0-1.56-0.79-1.56-1.66c0-0.52,0.19-0.99,0.51-1.34
		c0.34-0.38,0.78-0.6,1.2-0.6h0.01c0.68,0,1.22,0.59,1.22,1.21c0,0.15-0.04,0.22-0.19,0.25c-0.15,0.02-1.14,0.1-2.07,0.13
		c0.02,1.02,0.61,1.45,1.17,1.45c0.33,0,0.63-0.12,0.92-0.39L28.03,14.1z M26.64,11.58c-0.34,0-0.69,0.31-0.8,0.96
		c0.42,0,0.85,0,1.29-0.02c0.14,0,0.19-0.05,0.19-0.15C27.33,11.96,27.07,11.58,26.64,11.58L26.64,11.58z"/>
	<path fill="#FFFFFF" class="st0" d="M29.78,12.13c0.26-0.43,0.59-0.85,0.96-0.85c0.29,0,0.48,0.21,0.48,0.4c0,0.18-0.11,0.34-0.28,0.42
		c-0.1,0.04-0.17,0.02-0.21-0.02c-0.12-0.11-0.21-0.16-0.35-0.16c-0.2,0-0.45,0.23-0.62,0.65v1.4c0,0.52,0.04,0.56,0.66,0.61v0.21
		h-1.91v-0.21c0.48-0.05,0.55-0.1,0.55-0.61v-1.63c0-0.5-0.04-0.53-0.49-0.6v-0.18c0.4-0.06,0.77-0.16,1.18-0.32v0.88H29.78z"/>
	<path fill="#FFFFFF" class="st0" d="M34.49,14.07c-0.36,0.47-0.9,0.82-1.37,0.82c-1.04,0-1.64-0.8-1.64-1.64c0-0.6,0.27-1.13,0.81-1.53
		c0.44-0.32,0.92-0.45,1.23-0.45h0.01c0.33,0,0.59,0.1,0.72,0.21c0.11,0.09,0.13,0.16,0.13,0.24c0,0.18-0.18,0.36-0.28,0.36
		c-0.05,0-0.09-0.02-0.16-0.09c-0.26-0.23-0.53-0.34-0.82-0.34c-0.49,0-0.95,0.4-0.95,1.23c0,1.08,0.79,1.43,1.21,1.43
		c0.33,0,0.6-0.09,0.96-0.42L34.49,14.07z"/>
	<path fill="#FFFFFF" class="st0" d="M38.86,14.61c-0.18,0.02-0.41,0.07-0.63,0.12c-0.22,0.06-0.44,0.11-0.6,0.16l-0.05-0.04v-0.56
		c-0.18,0.13-0.34,0.27-0.56,0.4c-0.24,0.13-0.41,0.2-0.63,0.2c-0.56,0-1.01-0.33-1.01-1.18v-1.5c0-0.43-0.06-0.47-0.27-0.52
		l-0.21-0.05v-0.19c0.16-0.01,0.38-0.03,0.6-0.05c0.23-0.03,0.46-0.06,0.6-0.09c-0.02,0.24-0.02,0.62-0.02,1.14v1.06
		c0,0.66,0.33,0.86,0.69,0.86c0.28,0,0.56-0.11,0.82-0.35v-1.81c0-0.43-0.07-0.48-0.33-0.52l-0.28-0.05v-0.19
		c0.22-0.01,0.51-0.03,0.75-0.06c0.24-0.02,0.43-0.05,0.55-0.08v2.59c0,0.41,0.06,0.46,0.38,0.48l0.21,0.01V14.61z"/>
	<path fill="#FFFFFF" class="st0" d="M40.48,12.13c0.26-0.43,0.59-0.85,0.96-0.85c0.29,0,0.48,0.21,0.48,0.4c0,0.18-0.11,0.34-0.28,0.42
		c-0.1,0.04-0.17,0.02-0.21-0.02c-0.12-0.11-0.21-0.16-0.35-0.16c-0.2,0-0.45,0.23-0.62,0.65v1.4c0,0.52,0.04,0.56,0.66,0.61v0.21
		h-1.91v-0.21c0.48-0.05,0.55-0.1,0.55-0.61v-1.63c0-0.5-0.04-0.53-0.49-0.6v-0.18c0.4-0.06,0.77-0.16,1.18-0.32v0.88H40.48z"/>
	<path fill="#FFFFFF" class="st0" d="M46.08,11.58c-0.42,0.06-0.49,0.13-0.71,0.58c-0.2,0.4-0.46,1.06-1.01,2.33c-0.54,1.25-0.71,1.7-0.85,2.14
		c-0.04,0.15-0.14,0.19-0.25,0.19c-0.23,0-0.48-0.19-0.48-0.4c0-0.13,0.07-0.2,0.2-0.29c0.27-0.16,0.43-0.34,0.62-0.69
		c0.14-0.26,0.21-0.41,0.24-0.51c0.05-0.12,0.03-0.22-0.02-0.35c-0.34-0.93-0.71-1.91-0.93-2.42c-0.17-0.41-0.26-0.51-0.69-0.58
		v-0.21h1.69l0.01,0.21c-0.37,0.06-0.42,0.13-0.32,0.42l0.72,1.92c0.21-0.49,0.56-1.42,0.71-1.9c0.1-0.29,0.04-0.38-0.41-0.45v-0.21
		h1.46V11.58z"/>
	<path fill="#FFFFFF" class="st0" d="M48.24,13.26h-1.87l0.11-0.45h1.88L48.24,13.26z"/>
	<path fill="#FFFFFF" class="st0" d="M50.67,14.78c-0.14,0.08-0.27,0.11-0.34,0.11c-0.53,0-0.83-0.3-0.83-0.93V11.7h-0.54l-0.04-0.09l0.22-0.24
		h0.36V10.8l0.58-0.55l0.11,0.02v1.1h0.89c0.08,0.09,0.05,0.26-0.05,0.33H50.2v1.98c0,0.63,0.28,0.74,0.47,0.74
		c0.19,0,0.37-0.08,0.48-0.13l0.07,0.21L50.67,14.78z"/>
	<path fill="#FFFFFF" class="st0" d="M52.83,12.13c0.26-0.43,0.59-0.85,0.96-0.85c0.29,0,0.48,0.21,0.48,0.4c0,0.18-0.11,0.34-0.28,0.42
		c-0.1,0.04-0.17,0.02-0.21-0.02c-0.12-0.11-0.21-0.16-0.35-0.16c-0.2,0-0.45,0.23-0.62,0.65v1.4c0,0.52,0.04,0.56,0.66,0.61v0.21
		h-1.91v-0.21c0.48-0.05,0.55-0.1,0.55-0.61v-1.63c0-0.5-0.04-0.53-0.49-0.6v-0.18c0.4-0.06,0.77-0.16,1.18-0.32v0.88H52.83z"/>
	<path fill="#FFFFFF" class="st0" d="M57.16,14.89c-0.15,0-0.32-0.07-0.41-0.16c-0.11-0.1-0.16-0.21-0.19-0.33c-0.32,0.2-0.7,0.49-0.92,0.49
		c-0.6,0-0.99-0.47-0.99-0.97c0-0.39,0.21-0.63,0.65-0.77c0.51-0.16,1.06-0.37,1.23-0.51V12.5c0-0.56-0.26-0.86-0.64-0.86
		c-0.14,0-0.26,0.05-0.34,0.14c-0.1,0.1-0.17,0.28-0.24,0.53c-0.05,0.14-0.13,0.19-0.26,0.19c-0.16,0-0.37-0.16-0.37-0.35
		c0-0.12,0.1-0.21,0.26-0.32c0.23-0.17,0.77-0.47,1.22-0.55c0.25,0,0.48,0.06,0.67,0.2c0.3,0.25,0.38,0.57,0.38,0.99v1.41
		c0,0.35,0.14,0.47,0.28,0.47c0.09,0,0.2-0.04,0.29-0.09l0.08,0.21L57.16,14.89z M56.53,12.92c-0.16,0.08-0.48,0.23-0.65,0.31
		c-0.31,0.13-0.48,0.29-0.48,0.58c0,0.41,0.31,0.6,0.55,0.6c0.19,0,0.45-0.12,0.58-0.26V12.92z"/>
	<path fill="#FFFFFF" class="st0" d="M58.09,14.8v-0.21c0.5-0.05,0.56-0.1,0.56-0.64v-1.58c0-0.49-0.03-0.53-0.5-0.61v-0.19
		c0.43-0.07,0.83-0.16,1.19-0.3v2.68c0,0.54,0.05,0.59,0.56,0.64v0.21H58.09z M58.51,10.19c0-0.25,0.2-0.44,0.44-0.44
		s0.42,0.19,0.42,0.44c0,0.23-0.18,0.42-0.43,0.42C58.71,10.61,58.51,10.42,58.51,10.19z"/>
	<path fill="#FFFFFF" class="st0" d="M62.57,14.8v-0.21c0.46-0.05,0.51-0.11,0.51-0.67v-1.28c0-0.55-0.22-0.88-0.71-0.88c-0.3,0-0.6,0.19-0.84,0.39
		v1.82c0,0.54,0.04,0.57,0.5,0.62v0.21h-1.77v-0.21c0.53-0.06,0.57-0.1,0.57-0.63v-1.58c0-0.51-0.05-0.54-0.47-0.62v-0.2
		c0.38-0.06,0.79-0.16,1.17-0.31v0.63c0.16-0.12,0.33-0.24,0.54-0.38c0.22-0.15,0.42-0.23,0.66-0.23c0.63,0,1.04,0.45,1.04,1.22
		v1.47c0,0.54,0.05,0.56,0.51,0.62v0.21H62.57z"/>
	<path fill="#FFFFFF" class="st0" d="M64.69,14.8v-0.21c0.5-0.05,0.56-0.1,0.56-0.64v-1.58c0-0.49-0.03-0.53-0.5-0.61v-0.19
		c0.43-0.07,0.83-0.16,1.19-0.3v2.68c0,0.54,0.05,0.59,0.56,0.64v0.21H64.69z M65.11,10.19c0-0.25,0.2-0.44,0.44-0.44
		s0.42,0.19,0.42,0.44c0,0.23-0.18,0.42-0.43,0.42C65.32,10.61,65.11,10.42,65.11,10.19z"/>
	<path fill="#FFFFFF" class="st0" d="M69.17,14.8v-0.21c0.46-0.05,0.51-0.11,0.51-0.67v-1.28c0-0.55-0.22-0.88-0.71-0.88c-0.3,0-0.6,0.19-0.84,0.39
		v1.82c0,0.54,0.04,0.57,0.5,0.62v0.21h-1.77v-0.21c0.53-0.06,0.57-0.1,0.57-0.63v-1.58c0-0.51-0.05-0.54-0.47-0.62v-0.2
		c0.38-0.06,0.79-0.16,1.17-0.31v0.63c0.16-0.12,0.33-0.24,0.54-0.38c0.22-0.15,0.42-0.23,0.66-0.23c0.63,0,1.04,0.45,1.04,1.22
		v1.47c0,0.54,0.05,0.56,0.51,0.62v0.21H69.17z"/>
	<path fill="#FFFFFF" class="st0" d="M74.8,11.44c-0.06,0.12-0.23,0.33-0.36,0.4l-0.45-0.02c0.13,0.17,0.23,0.41,0.23,0.69
		c0,0.84-0.72,1.25-1.43,1.25c-0.15,0-0.29-0.02-0.42-0.04c-0.1,0.07-0.21,0.19-0.21,0.29c0,0.15,0.15,0.31,0.51,0.31
		c0.28,0,0.55-0.02,0.83-0.02c0.48,0,1.17,0.15,1.17,0.94c0,0.82-0.96,1.58-2.03,1.58c-0.91,0-1.39-0.52-1.4-0.96
		c0-0.19,0.08-0.34,0.21-0.45c0.18-0.17,0.46-0.37,0.64-0.52c-0.29-0.09-0.49-0.26-0.6-0.43c-0.08-0.11-0.11-0.26-0.09-0.35
		c0.33-0.12,0.59-0.32,0.71-0.47c-0.38-0.16-0.7-0.53-0.7-1.05c0-0.9,0.82-1.31,1.46-1.31h0.01c0.26,0,0.52,0.07,0.77,0.2
		c0.41-0.02,0.82-0.07,1.12-0.11L74.8,11.44z M72.93,14.92c-0.37,0-0.55,0.05-0.69,0.16c-0.19,0.17-0.34,0.37-0.34,0.58
		c0,0.41,0.44,0.76,1.06,0.76c0.72,0,1.11-0.38,1.11-0.85c0-0.27-0.14-0.47-0.37-0.56C73.5,14.93,73.27,14.92,72.93,14.92
		L72.93,14.92z M72.79,11.53c-0.32,0-0.63,0.31-0.63,0.93c0,0.61,0.29,1.04,0.72,1.04c0.34-0.01,0.64-0.31,0.64-0.93
		C73.51,11.97,73.24,11.53,72.79,11.53L72.79,11.53z"/>
	<path fill="#FFFFFF" class="st0" d="M75.72,14.89c-0.26,0-0.46-0.18-0.46-0.48c0-0.26,0.2-0.47,0.47-0.47s0.47,0.2,0.47,0.47
		c0,0.3-0.19,0.48-0.47,0.48H75.72z"/>
	<path fill="#FFFFFF" class="st0" d="M79.96,14.07c-0.36,0.47-0.9,0.82-1.37,0.82c-1.04,0-1.64-0.8-1.64-1.64c0-0.6,0.28-1.13,0.81-1.53
		c0.44-0.32,0.92-0.45,1.23-0.45H79c0.33,0,0.59,0.1,0.72,0.21c0.11,0.09,0.13,0.16,0.13,0.24c0,0.18-0.18,0.36-0.28,0.36
		c-0.05,0-0.09-0.02-0.15-0.09c-0.26-0.23-0.53-0.34-0.82-0.34c-0.49,0-0.95,0.4-0.95,1.23c0,1.08,0.78,1.43,1.21,1.43
		c0.33,0,0.6-0.09,0.96-0.42L79.96,14.07z"/>
	<path fill="#FFFFFF" class="st0" d="M82.18,11.28c1.02,0,1.77,0.79,1.77,1.74c0,1.27-0.97,1.87-1.78,1.87c-1.14,0-1.81-0.86-1.81-1.72
		C80.37,11.88,81.42,11.28,82.18,11.28L82.18,11.28z M82.08,11.54c-0.46,0-0.89,0.47-0.89,1.35c0,0.99,0.43,1.72,1.07,1.72
		c0.46,0,0.88-0.31,0.88-1.41C83.14,12.26,82.76,11.54,82.08,11.54L82.08,11.54z"/>
	<path fill="#FFFFFF" class="st0" d="M88.84,14.8v-0.21c0.45-0.05,0.54-0.09,0.54-0.64v-1.27c0-0.59-0.22-0.91-0.69-0.91
		c-0.26,0-0.55,0.15-0.85,0.39c0.01,0.1,0.02,0.19,0.02,0.33V14c0,0.49,0.07,0.54,0.51,0.59v0.21h-1.76v-0.21
		c0.48-0.05,0.55-0.09,0.55-0.6v-1.33c0-0.59-0.22-0.89-0.68-0.89c-0.3,0-0.6,0.2-0.84,0.39v1.83c0,0.51,0.07,0.55,0.44,0.6v0.21
		h-1.72v-0.21c0.52-0.05,0.59-0.1,0.59-0.61v-1.6c0-0.5-0.03-0.55-0.48-0.62v-0.2c0.34-0.05,0.79-0.16,1.16-0.31v0.64
		c0.17-0.11,0.34-0.26,0.59-0.4c0.21-0.13,0.41-0.21,0.66-0.21c0.38,0,0.73,0.24,0.89,0.64c0.24-0.17,0.46-0.32,0.65-0.45
		c0.17-0.11,0.38-0.2,0.6-0.2c0.63,0,1.04,0.44,1.04,1.22v1.48c0,0.52,0.05,0.54,0.52,0.6v0.21H88.84z"/>
</g>
<g>
	<path fill="#FFFFFF" class="st0" d="M1.75,5.03C1.6,5.11,1.48,5.14,1.41,5.14c-0.53,0-0.83-0.3-0.83-0.93V1.95H0.04L0,1.86l0.22-0.24h0.36V1.05
		L1.17,0.5l0.11,0.02v1.1h0.89c0.08,0.09,0.05,0.26-0.05,0.33H1.27v1.98c0,0.63,0.27,0.74,0.47,0.74c0.19,0,0.37-0.08,0.48-0.13
		L2.3,4.75L1.75,5.03z"/>
	<path fill="#FFFFFF" class="st0" d="M3.9,2.38c0.26-0.43,0.59-0.85,0.96-0.85c0.29,0,0.48,0.21,0.48,0.4c0,0.18-0.11,0.34-0.28,0.42
		C4.97,2.4,4.9,2.38,4.85,2.34C4.73,2.22,4.63,2.18,4.5,2.18c-0.2,0-0.45,0.23-0.62,0.65v1.4c0,0.52,0.04,0.56,0.66,0.61v0.21H2.64
		V4.84c0.48-0.05,0.55-0.1,0.55-0.61V2.6c0-0.5-0.04-0.53-0.49-0.6V1.83C3.1,1.76,3.47,1.67,3.88,1.5v0.88H3.9z"/>
	<path fill="#FFFFFF" class="st0" d="M8.23,5.14c-0.15,0-0.32-0.07-0.41-0.16c-0.11-0.1-0.16-0.21-0.19-0.33c-0.32,0.2-0.7,0.49-0.92,0.49
		c-0.6,0-0.99-0.47-0.99-0.97c0-0.39,0.21-0.63,0.65-0.77C6.88,3.24,7.43,3.04,7.6,2.9V2.76c0-0.56-0.26-0.86-0.64-0.86
		c-0.14,0-0.26,0.05-0.34,0.14c-0.1,0.1-0.17,0.28-0.24,0.53C6.34,2.7,6.25,2.76,6.13,2.76c-0.16,0-0.37-0.16-0.37-0.35
		c0-0.12,0.1-0.21,0.26-0.32c0.23-0.17,0.77-0.47,1.22-0.55c0.25,0,0.48,0.06,0.67,0.2C8.2,1.98,8.29,2.3,8.29,2.72v1.41
		c0,0.35,0.14,0.47,0.28,0.47c0.09,0,0.2-0.04,0.28-0.09l0.08,0.21L8.23,5.14z M7.6,3.17C7.44,3.25,7.12,3.4,6.96,3.48
		C6.64,3.61,6.47,3.77,6.47,4.06c0,0.41,0.31,0.6,0.55,0.6c0.19,0,0.45-0.12,0.58-0.26V3.17z"/>
	<path fill="#FFFFFF" class="st0" d="M9.16,5.05V4.84c0.5-0.05,0.56-0.1,0.56-0.64V2.62c0-0.49-0.03-0.53-0.5-0.61V1.82
		c0.43-0.07,0.83-0.16,1.19-0.3v2.68c0,0.54,0.05,0.59,0.56,0.64v0.21H9.16z M9.58,0.44C9.58,0.19,9.79,0,10.02,0
		s0.42,0.19,0.42,0.44c0,0.23-0.18,0.42-0.43,0.42C9.79,0.86,9.58,0.67,9.58,0.44z"/>
	<path fill="#FFFFFF" class="st0" d="M13.64,5.05V4.84c0.46-0.05,0.51-0.11,0.51-0.67V2.9c0-0.55-0.22-0.88-0.71-0.88c-0.3,0-0.6,0.19-0.84,0.39
		v1.82c0,0.54,0.04,0.57,0.5,0.62v0.21h-1.77V4.84c0.53-0.06,0.57-0.1,0.57-0.63V2.63c0-0.51-0.05-0.54-0.47-0.62v-0.2
		c0.38-0.06,0.79-0.16,1.17-0.31v0.63c0.16-0.12,0.33-0.24,0.54-0.38c0.23-0.15,0.42-0.23,0.66-0.23c0.63,0,1.04,0.45,1.04,1.22
		v1.47c0,0.54,0.05,0.56,0.51,0.62v0.21H13.64z"/>
	<path fill="#FFFFFF" class="st0" d="M15.76,5.05V4.84c0.5-0.05,0.56-0.1,0.56-0.64V2.62c0-0.49-0.03-0.53-0.5-0.61V1.82
		c0.43-0.07,0.83-0.16,1.19-0.3v2.68c0,0.54,0.05,0.59,0.56,0.64v0.21H15.76z M16.18,0.44c0-0.25,0.2-0.44,0.44-0.44
		s0.42,0.19,0.42,0.44c0,0.23-0.18,0.42-0.43,0.42C16.39,0.86,16.18,0.67,16.18,0.44z"/>
	<path fill="#FFFFFF" class="st0" d="M20.24,5.05V4.84c0.46-0.05,0.51-0.11,0.51-0.67V2.9c0-0.55-0.22-0.88-0.71-0.88c-0.3,0-0.6,0.19-0.84,0.39
		v1.82c0,0.54,0.04,0.57,0.5,0.62v0.21h-1.77V4.84c0.53-0.06,0.57-0.1,0.57-0.63V2.63c0-0.51-0.05-0.54-0.47-0.62v-0.2
		c0.38-0.06,0.79-0.16,1.17-0.31v0.63c0.16-0.12,0.33-0.24,0.54-0.38c0.23-0.15,0.42-0.23,0.66-0.23c0.63,0,1.04,0.45,1.04,1.22
		v1.47c0,0.54,0.05,0.56,0.51,0.62v0.21H20.24z"/>
	<path fill="#FFFFFF" class="st0" d="M25.87,1.69c-0.06,0.12-0.23,0.33-0.36,0.4l-0.45-0.02c0.13,0.17,0.23,0.41,0.23,0.69
		c0,0.84-0.72,1.25-1.43,1.25c-0.15,0-0.29-0.02-0.42-0.04c-0.1,0.07-0.2,0.19-0.2,0.3c0,0.15,0.15,0.31,0.5,0.31
		c0.28,0,0.55-0.02,0.83-0.02c0.48,0,1.17,0.15,1.17,0.94c0,0.82-0.96,1.58-2.02,1.58c-0.91,0-1.39-0.52-1.4-0.96
		c0-0.19,0.08-0.34,0.21-0.45c0.18-0.17,0.46-0.37,0.64-0.52c-0.29-0.09-0.49-0.26-0.6-0.43c-0.08-0.11-0.11-0.26-0.09-0.35
		c0.33-0.12,0.59-0.32,0.71-0.47c-0.38-0.16-0.7-0.53-0.7-1.05c0-0.9,0.82-1.31,1.46-1.31h0.01c0.26,0,0.52,0.07,0.77,0.2
		c0.41-0.02,0.82-0.07,1.12-0.11L25.87,1.69z M24,5.17c-0.37,0-0.55,0.05-0.69,0.16c-0.19,0.17-0.34,0.37-0.34,0.58
		c0,0.41,0.44,0.76,1.06,0.76c0.72,0,1.11-0.38,1.11-0.85c0-0.27-0.14-0.47-0.37-0.56C24.57,5.18,24.34,5.17,24,5.17L24,5.17z
		 M23.86,1.78c-0.32,0-0.63,0.31-0.63,0.93c0,0.61,0.29,1.04,0.72,1.04c0.34-0.01,0.64-0.31,0.64-0.93
		C24.58,2.22,24.31,1.78,23.86,1.78L23.86,1.78z"/>
	<path fill="#FFFFFF" class="st0" d="M30.32,5.4c-0.56,0.33-1.08,0.42-1.61,0.42c-1.27,0-2.43-0.79-2.43-2.41c0.01-1.84,1.52-2.91,3.08-2.91
		c1.44,0,2.27,0.94,2.27,2.02c0,1.07-0.83,1.96-1.91,1.96c-0.43,0-0.45-0.22-0.39-0.57l0.1-0.44l-0.02-0.01
		c-0.27,0.39-0.99,1.02-1.37,1.02c-0.19,0-0.39-0.21-0.38-0.68c0-0.43,0.17-1.03,0.64-1.47c0.35-0.33,0.8-0.58,1.3-0.59
		c0.12,0,0.31,0.04,0.41,0.06c0.11,0.02,0.19,0.04,0.27,0.04c-0.12,0.48-0.26,1.11-0.38,1.77c-0.08,0.41-0.05,0.53,0.14,0.52
		c0.54-0.01,1.18-0.55,1.18-1.61c0-1.1-0.82-1.71-1.91-1.71c-1.48,0-2.5,1.08-2.5,2.54c0.01,1.04,0.58,2.11,2.16,2.11
		c0.47,0,1.05-0.17,1.26-0.29L30.32,5.4z M29.26,2.07c-0.22,0-0.39,0.1-0.52,0.24c-0.23,0.25-0.45,0.8-0.45,1.28
		c0,0.29,0.07,0.37,0.16,0.37c0.13,0,0.56-0.27,1.03-0.93c0.09-0.26,0.17-0.63,0.21-0.86c-0.11-0.05-0.29-0.1-0.43-0.1H29.26z"/>
	<path fill="#FFFFFF" class="st0" d="M36.64,5.05V4.84c0.45-0.05,0.54-0.09,0.54-0.64V2.93c0-0.59-0.23-0.91-0.69-0.91c-0.26,0-0.55,0.15-0.85,0.39
		c0.01,0.1,0.02,0.19,0.02,0.33v1.51c0,0.49,0.08,0.54,0.51,0.59v0.21h-1.76V4.84c0.48-0.05,0.55-0.09,0.55-0.6V2.91
		c0-0.59-0.22-0.89-0.68-0.89c-0.3,0-0.6,0.2-0.84,0.39v1.83c0,0.5,0.07,0.55,0.44,0.6v0.21h-1.72V4.84
		c0.52-0.05,0.59-0.1,0.59-0.61v-1.6c0-0.5-0.03-0.55-0.48-0.62v-0.2c0.34-0.05,0.79-0.16,1.17-0.31v0.64
		c0.17-0.11,0.34-0.26,0.58-0.4c0.21-0.13,0.41-0.21,0.66-0.21c0.38,0,0.73,0.24,0.89,0.64c0.24-0.17,0.46-0.32,0.66-0.45
		c0.17-0.11,0.38-0.2,0.6-0.2c0.63,0,1.04,0.44,1.04,1.22v1.48c0,0.52,0.05,0.54,0.52,0.6v0.21H36.64z"/>
	<path fill="#FFFFFF" class="st0" d="M41.74,4.35C41.23,5,40.65,5.14,40.4,5.14c-0.98,0-1.56-0.79-1.56-1.67c0-0.52,0.19-0.99,0.51-1.34
		c0.34-0.38,0.78-0.6,1.2-0.6h0c0.68,0,1.22,0.59,1.22,1.21c0,0.15-0.04,0.22-0.19,0.25c-0.14,0.02-1.14,0.1-2.07,0.13
		c0.02,1.02,0.61,1.44,1.17,1.44c0.33,0,0.63-0.12,0.92-0.39L41.74,4.35z M40.36,1.83c-0.34,0-0.69,0.31-0.8,0.96
		c0.42,0,0.85,0,1.29-0.02c0.14-0.01,0.19-0.05,0.19-0.15C41.04,2.21,40.78,1.83,40.36,1.83L40.36,1.83z"/>
	<path fill="#FFFFFF" class="st0" d="M43.49,2.38c0.26-0.43,0.59-0.85,0.96-0.85c0.29,0,0.48,0.21,0.48,0.4c0,0.18-0.11,0.34-0.28,0.42
		c-0.1,0.04-0.17,0.02-0.21-0.02c-0.12-0.11-0.21-0.16-0.35-0.16c-0.2,0-0.45,0.23-0.62,0.65v1.4c0,0.52,0.04,0.56,0.66,0.61v0.21
		h-1.91V4.84c0.48-0.05,0.55-0.1,0.55-0.61V2.6c0-0.5-0.04-0.53-0.49-0.6V1.83c0.4-0.06,0.77-0.16,1.18-0.32v0.88H43.49z"/>
	<path fill="#FFFFFF" class="st0" d="M48.21,4.32c-0.36,0.47-0.9,0.82-1.37,0.82c-1.04,0-1.64-0.81-1.64-1.64c0-0.6,0.27-1.13,0.81-1.53
		c0.44-0.32,0.92-0.45,1.23-0.45h0.01c0.33,0,0.59,0.1,0.72,0.21c0.11,0.09,0.13,0.16,0.13,0.24c0,0.18-0.18,0.36-0.28,0.36
		c-0.05,0-0.09-0.02-0.16-0.09c-0.26-0.23-0.53-0.34-0.82-0.34c-0.49,0-0.95,0.4-0.95,1.23c0,1.08,0.78,1.43,1.21,1.43
		c0.33,0,0.6-0.09,0.96-0.42L48.21,4.32z"/>
	<path fill="#FFFFFF" class="st0" d="M52.57,4.86c-0.18,0.02-0.41,0.07-0.63,0.12c-0.22,0.06-0.43,0.11-0.6,0.16L51.29,5.1V4.54
		c-0.18,0.13-0.34,0.27-0.56,0.4c-0.24,0.13-0.41,0.2-0.63,0.2c-0.56,0-1.01-0.33-1.01-1.18v-1.5c0-0.43-0.06-0.47-0.27-0.52
		L48.6,1.9V1.71c0.16-0.01,0.38-0.03,0.6-0.05c0.23-0.03,0.46-0.06,0.6-0.09c-0.02,0.24-0.02,0.62-0.02,1.14v1.06
		c0,0.66,0.33,0.86,0.69,0.86c0.28,0,0.56-0.11,0.82-0.35V2.47c0-0.43-0.07-0.48-0.33-0.52L50.68,1.9V1.71
		c0.23-0.01,0.51-0.03,0.75-0.06c0.24-0.02,0.43-0.05,0.55-0.08v2.59c0,0.41,0.06,0.46,0.38,0.48l0.21,0.01V4.86z"/>
	<path fill="#FFFFFF" class="st0" d="M54.19,2.38c0.26-0.43,0.59-0.85,0.96-0.85c0.29,0,0.48,0.21,0.48,0.4c0,0.18-0.11,0.34-0.28,0.42
		c-0.1,0.04-0.17,0.02-0.21-0.02c-0.12-0.11-0.21-0.16-0.35-0.16c-0.2,0-0.45,0.23-0.62,0.65v1.4c0,0.52,0.04,0.56,0.66,0.61v0.21
		h-1.91V4.84c0.48-0.05,0.55-0.1,0.55-0.61V2.6c0-0.5-0.04-0.53-0.49-0.6V1.83c0.4-0.06,0.77-0.16,1.18-0.32v0.88H54.19z"/>
	<path fill="#FFFFFF" class="st0" d="M59.8,1.83c-0.42,0.06-0.49,0.13-0.71,0.58c-0.2,0.4-0.46,1.06-1.01,2.33c-0.54,1.25-0.71,1.7-0.85,2.14
		c-0.04,0.15-0.14,0.19-0.25,0.19c-0.23,0-0.48-0.19-0.48-0.4c0-0.13,0.07-0.2,0.2-0.29c0.27-0.16,0.43-0.34,0.62-0.69
		c0.14-0.26,0.21-0.41,0.24-0.5c0.05-0.12,0.03-0.23-0.02-0.35c-0.34-0.93-0.71-1.91-0.93-2.42C56.45,2,56.36,1.9,55.93,1.83V1.62
		h1.69l0.01,0.21c-0.37,0.06-0.42,0.13-0.32,0.42l0.72,1.92c0.21-0.49,0.56-1.42,0.71-1.9c0.1-0.29,0.04-0.38-0.41-0.45V1.62h1.46
		V1.83z"/>
	<path fill="#FFFFFF" class="st0" d="M61.95,3.51h-1.87l0.11-0.45h1.88L61.95,3.51z"/>
	<path fill="#FFFFFF" class="st0" d="M64.39,5.03c-0.15,0.08-0.27,0.11-0.34,0.11c-0.53,0-0.83-0.3-0.83-0.93V1.95h-0.54l-0.04-0.09l0.22-0.24h0.36
		V1.05l0.58-0.55l0.11,0.02v1.1h0.89c0.08,0.09,0.05,0.26-0.05,0.33h-0.84v1.98c0,0.63,0.27,0.74,0.47,0.74
		c0.19,0,0.37-0.08,0.48-0.13l0.07,0.21L64.39,5.03z"/>
	<path fill="#FFFFFF" class="st0" d="M66.54,2.38c0.26-0.43,0.59-0.85,0.96-0.85c0.29,0,0.48,0.21,0.48,0.4c0,0.18-0.11,0.34-0.28,0.42
		c-0.1,0.04-0.17,0.02-0.21-0.02c-0.12-0.11-0.21-0.16-0.35-0.16c-0.2,0-0.45,0.23-0.62,0.65v1.4c0,0.52,0.04,0.56,0.66,0.61v0.21
		h-1.91V4.84c0.48-0.05,0.55-0.1,0.55-0.61V2.6c0-0.5-0.04-0.53-0.49-0.6V1.83c0.4-0.06,0.77-0.16,1.18-0.32v0.88H66.54z"/>
	<path fill="#FFFFFF" class="st0" d="M70.88,5.14c-0.15,0-0.32-0.07-0.41-0.16c-0.11-0.1-0.16-0.21-0.19-0.33c-0.32,0.2-0.7,0.49-0.92,0.49
		c-0.6,0-0.99-0.47-0.99-0.97c0-0.39,0.21-0.63,0.65-0.77c0.51-0.16,1.06-0.37,1.24-0.51V2.76c0-0.56-0.26-0.86-0.64-0.86
		c-0.14,0-0.26,0.05-0.34,0.14c-0.1,0.1-0.17,0.28-0.24,0.53c-0.05,0.14-0.13,0.19-0.26,0.19c-0.16,0-0.37-0.16-0.37-0.35
		c0-0.12,0.1-0.21,0.26-0.32c0.23-0.17,0.77-0.47,1.22-0.55c0.25,0,0.48,0.06,0.67,0.2c0.29,0.25,0.38,0.57,0.38,0.99v1.41
		c0,0.35,0.14,0.47,0.29,0.47c0.09,0,0.2-0.04,0.29-0.09l0.08,0.21L70.88,5.14z M70.25,3.17c-0.16,0.08-0.48,0.23-0.65,0.31
		c-0.31,0.13-0.48,0.29-0.48,0.58c0,0.41,0.31,0.6,0.55,0.6c0.19,0,0.45-0.12,0.59-0.26V3.17z"/>
	<path fill="#FFFFFF" class="st0" d="M71.8,5.05V4.84c0.5-0.05,0.56-0.1,0.56-0.64V2.62c0-0.49-0.03-0.53-0.5-0.61V1.82
		c0.43-0.07,0.83-0.16,1.19-0.3v2.68c0,0.54,0.05,0.59,0.56,0.64v0.21H71.8z M72.22,0.44c0-0.25,0.2-0.44,0.44-0.44
		s0.42,0.19,0.42,0.44c0,0.23-0.18,0.42-0.43,0.42C72.43,0.86,72.22,0.67,72.22,0.44z"/>
	<path fill="#FFFFFF" class="st0" d="M76.29,5.05V4.84c0.46-0.05,0.51-0.11,0.51-0.67V2.9c0-0.55-0.22-0.88-0.71-0.88c-0.3,0-0.6,0.19-0.84,0.39
		v1.82c0,0.54,0.04,0.57,0.5,0.62v0.21h-1.77V4.84c0.53-0.06,0.57-0.1,0.57-0.63V2.63c0-0.51-0.05-0.54-0.47-0.62v-0.2
		c0.38-0.06,0.79-0.16,1.17-0.31v0.63c0.16-0.12,0.33-0.24,0.54-0.38c0.23-0.15,0.42-0.23,0.66-0.23c0.63,0,1.04,0.45,1.04,1.22
		v1.47c0,0.54,0.05,0.56,0.51,0.62v0.21H76.29z"/>
	<path fill="#FFFFFF" class="st0" d="M78.41,5.05V4.84c0.5-0.05,0.56-0.1,0.56-0.64V2.62c0-0.49-0.03-0.53-0.5-0.61V1.82
		c0.43-0.07,0.83-0.16,1.19-0.3v2.68c0,0.54,0.05,0.59,0.56,0.64v0.21H78.41z M78.83,0.44c0-0.25,0.2-0.44,0.44-0.44
		s0.42,0.19,0.42,0.44c0,0.23-0.18,0.42-0.43,0.42C79.03,0.86,78.83,0.67,78.83,0.44z"/>
	<path fill="#FFFFFF" class="st0" d="M82.89,5.05V4.84c0.46-0.05,0.51-0.11,0.51-0.67V2.9c0-0.55-0.22-0.88-0.71-0.88c-0.3,0-0.6,0.19-0.84,0.39
		v1.82c0,0.54,0.04,0.57,0.5,0.62v0.21h-1.77V4.84c0.53-0.06,0.57-0.1,0.57-0.63V2.63c0-0.51-0.05-0.54-0.47-0.62v-0.2
		c0.38-0.06,0.79-0.16,1.17-0.31v0.63c0.16-0.12,0.33-0.24,0.54-0.38c0.23-0.15,0.42-0.23,0.66-0.23c0.63,0,1.04,0.45,1.04,1.22
		v1.47c0,0.54,0.05,0.56,0.51,0.62v0.21H82.89z"/>
	<path fill="#FFFFFF" class="st0" d="M88.52,1.69c-0.06,0.12-0.23,0.33-0.36,0.4L87.7,2.07c0.13,0.17,0.23,0.41,0.23,0.69
		c0,0.84-0.72,1.25-1.43,1.25c-0.15,0-0.29-0.02-0.42-0.04c-0.1,0.07-0.2,0.19-0.2,0.3c0,0.15,0.15,0.31,0.5,0.31
		c0.28,0,0.55-0.02,0.83-0.02c0.48,0,1.17,0.15,1.17,0.94c0,0.82-0.96,1.58-2.02,1.58c-0.91,0-1.39-0.52-1.4-0.96
		c0-0.19,0.08-0.34,0.21-0.45c0.18-0.17,0.46-0.37,0.64-0.52c-0.29-0.09-0.49-0.26-0.6-0.43c-0.08-0.11-0.11-0.26-0.09-0.35
		c0.33-0.12,0.59-0.32,0.71-0.47c-0.38-0.16-0.7-0.53-0.7-1.05c0-0.9,0.82-1.31,1.46-1.31h0.01c0.26,0,0.52,0.07,0.77,0.2
		c0.41-0.02,0.82-0.07,1.12-0.11L88.52,1.69z M86.65,5.17c-0.37,0-0.55,0.05-0.69,0.16c-0.19,0.17-0.34,0.37-0.34,0.58
		c0,0.41,0.44,0.76,1.06,0.76c0.72,0,1.11-0.38,1.11-0.85c0-0.27-0.14-0.47-0.37-0.56C87.21,5.18,86.98,5.17,86.65,5.17L86.65,5.17z
		 M86.5,1.78c-0.32,0-0.63,0.31-0.63,0.93c0,0.61,0.29,1.04,0.72,1.04c0.34-0.01,0.64-0.31,0.64-0.93
		C87.23,2.22,86.95,1.78,86.5,1.78L86.5,1.78z"/>
	<path fill="#FFFFFF" class="st0" d="M89.44,5.14c-0.26,0-0.46-0.18-0.46-0.48c0-0.26,0.2-0.47,0.47-0.47s0.47,0.2,0.47,0.47
		c0,0.3-0.19,0.48-0.47,0.48H89.44z"/>
	<path fill="#FFFFFF" class="st0" d="M93.68,4.32c-0.36,0.47-0.9,0.82-1.37,0.82c-1.04,0-1.64-0.81-1.64-1.64c0-0.6,0.27-1.13,0.81-1.53
		c0.44-0.32,0.92-0.45,1.23-0.45h0.01c0.33,0,0.59,0.1,0.72,0.21c0.11,0.09,0.13,0.16,0.13,0.24c0,0.18-0.18,0.36-0.28,0.36
		c-0.05,0-0.09-0.02-0.16-0.09c-0.26-0.23-0.53-0.34-0.82-0.34c-0.49,0-0.95,0.4-0.95,1.23c0,1.08,0.78,1.43,1.21,1.43
		c0.33,0,0.6-0.09,0.96-0.42L93.68,4.32z"/>
	<path fill="#FFFFFF" class="st0" d="M95.9,1.53c1.02,0,1.77,0.79,1.77,1.74c0,1.27-0.97,1.87-1.78,1.87c-1.14,0-1.81-0.86-1.81-1.72
		C94.08,2.13,95.13,1.53,95.9,1.53L95.9,1.53z M95.79,1.79c-0.46,0-0.89,0.47-0.89,1.35c0,0.99,0.43,1.72,1.07,1.72
		c0.46,0,0.88-0.31,0.88-1.41c0-0.94-0.38-1.66-1.05-1.66H95.79z"/>
	<path fill="#FFFFFF" class="st0" d="M102.55,5.05V4.84c0.45-0.05,0.54-0.09,0.54-0.64V2.93c0-0.59-0.23-0.91-0.69-0.91
		c-0.26,0-0.55,0.15-0.85,0.39c0.01,0.1,0.02,0.19,0.02,0.33v1.51c0,0.49,0.08,0.54,0.51,0.59v0.21h-1.76V4.84
		c0.48-0.05,0.55-0.09,0.55-0.6V2.91c0-0.59-0.22-0.89-0.68-0.89c-0.3,0-0.6,0.2-0.84,0.39v1.83c0,0.5,0.07,0.55,0.44,0.6v0.21
		h-1.72V4.84c0.52-0.05,0.59-0.1,0.59-0.61v-1.6c0-0.5-0.03-0.55-0.48-0.62v-0.2c0.34-0.05,0.79-0.16,1.17-0.31v0.64
		c0.17-0.11,0.34-0.26,0.58-0.4c0.21-0.13,0.41-0.21,0.66-0.21c0.38,0,0.73,0.24,0.89,0.64c0.24-0.17,0.46-0.32,0.66-0.45
		c0.17-0.11,0.38-0.2,0.6-0.2c0.63,0,1.04,0.44,1.04,1.22v1.48c0,0.52,0.05,0.54,0.52,0.6v0.21H102.55z"/>
</g>
</svg>
